<?xml version="1.0" encoding="utf-8"?>
<!-- Generator: Adobe Illustrator 27.5.0, SVG Export Plug-In . SVG Version: 6.00 Build 0)  -->
<svg version="1.1" xmlns="http://www.w3.org/2000/svg" xmlns:xlink="http://www.w3.org/1999/xlink" x="0px" y="0px"
	 viewBox="0 0 2500 2500" style="enable-background:new 0 0 2500 2500;" xml:space="preserve">
<g id="Background">
	<rect style="fill:#FFFFFF;" width="2500" height="2500"/>
</g>
<g id="Illustration">
	<g id="Big_data_analytics_1_">
		<circle style="fill:#F2E6DC;" cx="1250" cy="1250" r="915"/>
		<g>
			<path style="fill:#D3BBA3;" d="M1105.181,1570.244c-107.399,0-209.861-33.387-296.307-96.552
				c-41.61-30.404-78.206-66.861-108.77-108.358c-30.924-41.986-54.999-88.234-71.557-137.458c-0.176-0.523,0.105-1.09,0.63-1.267
				c0.523-0.173,1.09,0.106,1.267,0.63c68.609,203.965,259.391,341.005,474.736,341.005c276.119,0,500.758-224.639,500.758-500.758
				S1381.3,566.729,1105.181,566.729c-198.095,0-377.92,117.073-458.125,298.257c-0.223,0.505-0.81,0.735-1.319,0.51
				c-0.505-0.224-0.732-0.814-0.509-1.318c38.911-87.902,101.938-162.548,182.266-215.868
				c82.374-54.679,178.396-83.58,277.687-83.58c67.871,0,133.713,13.293,195.696,39.51
				c59.868,25.322,113.635,61.572,159.808,107.744c46.172,46.173,82.422,99.939,107.744,159.808
				c26.217,61.983,39.51,127.825,39.51,195.696s-13.293,133.713-39.51,195.696c-25.322,59.868-61.572,113.635-107.744,159.808
				c-46.173,46.172-99.939,82.422-159.808,107.744C1238.894,1556.951,1173.052,1570.244,1105.181,1570.244z"/>
			<path style="fill:#D3BBA3;" d="M1105.181,1503.135c-87.301,0-171.528-25.728-243.576-74.402
				c-70.313-47.503-124.892-113.782-157.836-191.672c-0.215-0.509,0.022-1.096,0.531-1.311c0.512-0.216,1.097,0.023,1.311,0.531
				c68.051,160.893,224.892,264.854,399.57,264.854c3.8,0,7.665-0.051,11.489-0.15c0.563,0,1.011,0.422,1.026,0.974
				c0.014,0.553-0.422,1.012-0.974,1.026C1112.881,1503.084,1108.997,1503.135,1105.181,1503.135z"/>
			<path style="fill:#D3BBA3;" d="M730.676,847.747c-0.173,0-0.348-0.045-0.508-0.139c-0.476-0.281-0.633-0.894-0.353-1.37
				c37.865-64.102,91.867-117.811,156.169-155.321c66.256-38.649,142.053-59.079,219.196-59.079c1.422,0,2.844,0.007,4.263,0.021
				c0.552,0.005,0.995,0.457,0.99,1.01c-0.005,0.551-0.434,0.996-1.01,0.99c-1.413-0.014-2.827-0.021-4.243-0.021
				c-152.712,0-295.884,81.777-373.643,213.418C731.352,847.571,731.018,847.747,730.676,847.747z"/>
			<path style="fill:#D3BBA3;" d="M1517.243,929.829c-0.418,0-0.808-0.264-0.948-0.682
				c-46.063-136.944-156.67-241.555-295.875-279.831c-0.533-0.146-0.846-0.696-0.699-1.229c0.146-0.532,0.703-0.844,1.229-0.698
				c68.435,18.816,131.992,54.709,183.805,103.797c51.651,48.937,90.877,110.255,113.438,177.325c0.176,0.523-0.106,1.09-0.63,1.267
				C1517.456,929.813,1517.349,929.829,1517.243,929.829z"/>
			
				<ellipse transform="matrix(0.7071 -0.7071 0.7071 0.7071 -324.526 726.763)" style="fill:#FFFFFF;" cx="715.018" cy="755.119" rx="46.993" ry="46.993"/>
			<path style="fill:#D3BBA3;" d="M715.018,756.119c-0.256,0-0.512-0.098-0.707-0.293L488.222,529.737H366.336c-0.553,0-1-0.447-1-1
				c0-0.553,0.447-1,1-1h122.3c0.266,0,0.52,0.105,0.707,0.293l226.382,226.382c0.391,0.391,0.391,1.023,0,1.414
				C715.529,756.021,715.273,756.119,715.018,756.119z"/>
			
				<ellipse transform="matrix(0.7071 -0.7071 0.7071 0.7071 -324.526 726.763)" style="fill:#FFFFFF;" cx="715.018" cy="755.119" rx="46.993" ry="46.993"/>
			<g>
				
					<ellipse transform="matrix(0.9732 -0.2298 0.2298 0.9732 -107.6398 127.0169)" style="fill:#FFFFFF;" cx="491.628" cy="525.745" rx="46.992" ry="46.993"/>
				<path style="fill:#D3BBA3;" d="M491.628,573.737c-26.463,0-47.992-21.529-47.992-47.992c0-26.463,21.529-47.992,47.992-47.992
					c26.463,0,47.992,21.529,47.992,47.992C539.62,552.208,518.091,573.737,491.628,573.737z M491.628,479.753
					c-25.36,0-45.992,20.632-45.992,45.992c0,25.36,20.632,45.992,45.992,45.992c25.36,0,45.992-20.632,45.992-45.992
					C537.62,500.385,516.988,479.753,491.628,479.753z"/>
			</g>
			<path style="fill:#D3BBA3;" d="M736.542,1753.541H444.636c-0.553,0-1-0.447-1-1s0.447-1,1-1h291.492l204.812-204.812
				c0.391-0.391,1.023-0.391,1.414,0c0.391,0.391,0.391,1.023,0,1.414l-205.104,205.104
				C737.062,1753.436,736.808,1753.541,736.542,1753.541z"/>
			
				<ellipse transform="matrix(0.7071 -0.7071 0.7071 0.7071 -818.401 1119.0786)" style="fill:#FFFFFF;" cx="941.647" cy="1547.437" rx="46.993" ry="46.993"/>
			
				<ellipse transform="matrix(0.3827 -0.9239 0.9239 0.3827 -1160.8909 1767.6864)" style="fill:#FFFFFF;" cx="742.32" cy="1752.541" rx="46.993" ry="46.993"/>
			
				<ellipse transform="matrix(0.7071 -0.7071 0.7071 0.7071 -1109.0032 827.7122)" style="fill:#E6D0BE;" cx="444.635" cy="1752.541" rx="46.993" ry="46.993"/>
			<path style="fill:#D3BBA3;" d="M693.142,1356.327H444.586c-0.553,0-1-0.447-1-1s0.447-1,1-1h248.556c0.553,0,1,0.447,1,1
				S693.694,1356.327,693.142,1356.327z"/>
			
				<ellipse transform="matrix(0.7071 -0.7071 0.7071 0.7071 -828.1448 711.3356)" style="fill:#E6D0BE;" cx="444.586" cy="1355.327" rx="46.993" ry="46.993"/>
			
				<ellipse transform="matrix(0.0709 -0.9975 0.9975 0.0709 -707.912 1950.6471)" style="fill:#FFFFFF;" cx="693.141" cy="1355.327" rx="46.993" ry="46.992"/>
			<path style="fill:#D3BBA3;" d="M1170.101,572.246c-0.256,0-0.512-0.098-0.707-0.293c-0.391-0.391-0.391-1.023,0-1.414
				l161.284-161.284c0.188-0.188,0.441-0.293,0.707-0.293h552.331c0.553,0,1,0.447,1,1c0,0.553-0.447,1-1,1h-551.917
				l-160.991,160.991C1170.612,572.148,1170.356,572.246,1170.101,572.246z"/>
			
				<ellipse transform="matrix(0.984 -0.1784 0.1784 0.984 -83.1486 217.9419)" style="fill:#FFFFFF;" cx="1170.101" cy="571.246" rx="46.993" ry="46.992"/>
			<g>
				<circle style="fill:#F2E6DC;" cx="1335.206" cy="409.962" r="46.993"/>
				<path style="fill:#D3BBA3;" d="M1335.206,457.955c-26.464,0-47.993-21.529-47.993-47.993c0-26.463,21.529-47.992,47.993-47.992
					c26.463,0,47.992,21.529,47.992,47.992C1383.198,436.426,1361.669,457.955,1335.206,457.955z M1335.206,363.97
					c-25.36,0-45.993,20.632-45.993,45.992c0,25.36,20.633,45.993,45.993,45.993s45.992-20.633,45.992-45.993
					C1381.198,384.602,1360.566,363.97,1335.206,363.97z"/>
			</g>
			<circle style="fill:#E6D0BE;" cx="1883.715" cy="409.962" r="46.993"/>
			<path style="fill:#D3BBA3;" d="M1556.593,709.126c-0.256,0-0.512-0.098-0.707-0.293c-0.391-0.391-0.391-1.023,0-1.414
				l171.421-171.42c0.188-0.188,0.441-0.293,0.707-0.293h287.099c0.553,0,1,0.447,1,1c0,0.553-0.447,1-1,1h-286.685L1557.3,708.833
				C1557.104,709.028,1556.849,709.126,1556.593,709.126z"/>
			<path style="fill:#D3BBA3;" d="M1589.706,936.452c-0.256,0-0.512-0.098-0.707-0.293c-0.391-0.391-0.391-1.023,0-1.414
				l185.784-185.783c0.188-0.188,0.441-0.293,0.707-0.293h308.25c0.553,0,1,0.447,1,1c0,0.553-0.447,1-1,1h-307.836l-185.491,185.49
				C1590.218,936.354,1589.962,936.452,1589.706,936.452z"/>
			
				<ellipse transform="matrix(0.9732 -0.2298 0.2298 0.9732 -116.4267 499.3974)" style="fill:#E6D0BE;" cx="2086.344" cy="749.669" rx="46.993" ry="46.993"/>
			
				<ellipse transform="matrix(0.9732 -0.2298 0.2298 0.9732 -172.3968 390.2643)" style="fill:#FFFFFF;" cx="1589.706" cy="935.453" rx="46.993" ry="46.993"/>
			<path style="fill:#D3BBA3;" d="M2054.625,1729.012H1634.66c-0.266,0-0.52-0.105-0.707-0.293l-248.323-248.323
				c-0.391-0.391-0.391-1.023,0-1.414s1.023-0.391,1.414,0l248.03,248.03h419.551c0.553,0,1,0.447,1,1
				S2055.178,1729.012,2054.625,1729.012z"/>
			
				<ellipse transform="matrix(0.9732 -0.2298 0.2298 0.9732 -302.8764 358.0975)" style="fill:#FFFFFF;" cx="1386.337" cy="1479.689" rx="46.992" ry="46.993"/>
		</g>
		<path style="fill:#FFFFFF;" d="M811.688,912.24c27.368,0,52.308,10.378,71.111,27.409c-0.264-4.179-0.413-8.388-0.413-12.633
			c0-108.885,88.268-197.154,197.153-197.154c108.884,0,197.153,88.269,197.153,197.154c0,21.15-3.344,41.516-9.509,60.614
			c8.009-3.147,16.72-4.894,25.846-4.894c39.056,0,70.717,31.661,70.717,70.717c0,39.056-31.661,70.716-70.717,70.716
			c-36.039,0-157.01,0-213.49,0c-68.127,0-215.772,0-267.851,0c-58.522,0-105.964-47.442-105.964-105.964
			C705.724,959.682,753.166,912.24,811.688,912.24z"/>
		<g>
			<g>
				<path style="fill:#FFFFFF;" d="M1538.383,1315.384c0,0-584.172-19.39-589.688,2.045l-171.928,667.873h942.838l171.923-667.867
					C1897.045,1296,1538.383,1315.384,1538.383,1315.384z"/>
				<polygon style="fill:#E6D0BE;" points="1910.168,1245.009 967.33,1245.009 948.69,1317.436 1891.527,1317.436 				"/>
				<path style="fill:#FFFFFF;" d="M1022.512,1281.729c-2.342,9.098-11.615,16.473-20.713,16.473
					c-9.098,0-14.575-7.375-12.233-16.473c2.342-9.098,11.615-16.473,20.713-16.473
					C1019.376,1265.256,1024.853,1272.631,1022.512,1281.729z"/>
				
					<ellipse transform="matrix(0.7509 -0.6604 0.6604 0.7509 -582.6201 1018.886)" style="fill:#FFFFFF;" cx="1059.263" cy="1281.729" rx="18.729" ry="14.489"/>
				
					<ellipse transform="matrix(0.7509 -0.6604 0.6604 0.7509 -569.3606 1054.0378)" style="fill:#FFFFFF;" cx="1112.488" cy="1281.729" rx="18.729" ry="14.489"/>
			</g>
			<g>
				<polygon style="fill:#E6D0BE;" points="1512.274,1533.103 945.484,1533.103 951.895,1508.195 1518.684,1508.195 				"/>
				<polygon style="fill:#E6D0BE;" points="1753.708,1533.103 1550.009,1533.103 1556.419,1508.195 1760.119,1508.195 				"/>
				<polygon style="fill:#E6D0BE;" points="1350.725,1613.581 1187.264,1613.581 1193.675,1588.673 1357.135,1588.673 				"/>
				<polygon style="fill:#E6D0BE;" points="1712.876,1613.581 1388.459,1613.581 1394.87,1588.673 1719.286,1588.673 				"/>
				<polygon style="fill:#E6D0BE;" points="1288.587,1855.015 1125.127,1855.015 1131.537,1830.107 1294.998,1830.107 				"/>
				<polygon style="fill:#E6D0BE;" points="1650.738,1855.015 1326.322,1855.015 1332.732,1830.107 1657.149,1830.107 				"/>
				<polygon style="fill:#E6D0BE;" points="1611.685,1694.059 1267.149,1694.059 1273.56,1669.151 1618.096,1669.151 				"/>
				<polygon style="fill:#E6D0BE;" points="1430.017,1774.537 1246.437,1774.537 1252.847,1749.629 1436.427,1749.629 				"/>
			</g>
			<g>
				<path style="fill:#363E44;" d="M1049.019,1465.314c-0.306,0-0.607-0.14-0.804-0.403l-30.604-41.21l0.758-0.602l50.839-40.432
					c0.432-0.346,1.061-0.273,1.404,0.16c0.344,0.432,0.272,1.061-0.16,1.404l-50.081,39.83l29.449,39.655
					c0.329,0.444,0.237,1.07-0.206,1.399C1049.435,1465.25,1049.226,1465.314,1049.019,1465.314z"/>
				<path style="fill:#363E44;" d="M1115.25,1465.314c-0.295,0-0.586-0.129-0.783-0.378c-0.344-0.432-0.272-1.061,0.16-1.404
					l50.08-39.831l-29.449-39.654c-0.329-0.444-0.237-1.07,0.206-1.399c0.443-0.33,1.07-0.236,1.399,0.206l30.604,41.209
					l-0.758,0.602l-50.838,40.433C1115.688,1465.243,1115.468,1465.314,1115.25,1465.314z"/>
				<path style="fill:#363E44;" d="M1065.474,1462.823c-0.201,0-0.404-0.061-0.581-0.187c-0.449-0.321-0.553-0.946-0.231-1.396
					l54.502-76.167c0.322-0.448,0.945-0.553,1.396-0.231c0.449,0.321,0.553,0.946,0.231,1.396l-54.502,76.167
					C1066.093,1462.678,1065.785,1462.823,1065.474,1462.823z"/>
			</g>
		</g>
		<g>
			<g>
				<path style="fill:#E6D0BE;" d="M1185.745,567.692v514.129c0,36.697,109.101,66.445,243.684,66.445
					c134.582,0,243.683-29.749,243.683-66.445V567.692H1185.745z"/>
				<path style="fill:#FFFFFF;" d="M1429.429,1149.267c-65.177,0-126.465-6.924-172.573-19.496
					c-46.501-12.68-72.11-29.708-72.11-47.949V566.692h489.367v515.129c0,18.241-25.609,35.27-72.11,47.949
					C1555.893,1142.343,1494.605,1149.267,1429.429,1149.267z M1186.745,568.692v513.129c0,17.006,25.746,33.779,70.636,46.02
					c45.942,12.526,107.044,19.426,172.048,19.426s126.104-6.899,172.047-19.426c44.891-12.24,70.637-29.014,70.637-46.02V568.692
					H1186.745z"/>
				<ellipse style="fill:#FFFFFF;" cx="1429.429" cy="567.589" rx="243.684" ry="66.445"/>
				<ellipse style="fill:#F2E6DC;" cx="1429.429" cy="562.621" rx="191.928" ry="41.936"/>
				<path style="fill:#FFFFFF;" d="M1429.429,806.445c-65.177,0-126.464-6.924-172.573-19.497
					c-46.501-12.68-72.11-29.708-72.11-47.948c0-0.553,0.447-1,1-1s1,0.447,1,1c0,17.006,25.746,33.778,70.636,46.019
					c45.943,12.527,107.044,19.427,172.048,19.427s126.104-6.899,172.048-19.427c44.89-12.24,70.636-29.013,70.636-46.019
					c0-0.553,0.447-1,1-1s1,0.447,1,1c0,18.24-25.609,35.269-72.11,47.948C1555.893,799.521,1494.605,806.445,1429.429,806.445z"/>
				<path style="fill:#FFFFFF;" d="M1429.429,977.856c-65.177,0-126.464-6.924-172.573-19.497
					c-46.501-12.68-72.11-29.708-72.11-47.948c0-0.553,0.447-1,1-1s1,0.447,1,1c0,17.006,25.746,33.778,70.636,46.019
					c45.943,12.527,107.044,19.427,172.048,19.427s126.104-6.899,172.048-19.427c44.89-12.24,70.636-29.013,70.636-46.019
					c0-0.553,0.447-1,1-1s1,0.447,1,1c0,18.24-25.609,35.269-72.11,47.948C1555.893,970.933,1494.605,977.856,1429.429,977.856z"/>
			</g>
			<g>
				<path style="fill:#E6D0BE;" d="M1477.735,696.781v514.129c0,36.697,109.101,66.445,243.684,66.445
					c134.582,0,243.683-29.749,243.683-66.445V696.781H1477.735z"/>
				<path style="fill:#FFFFFF;" d="M1721.419,1278.355c-65.176,0-126.464-6.924-172.573-19.497
					c-46.501-12.679-72.11-29.708-72.11-47.948V695.78h489.367v515.13c0,18.24-25.609,35.27-72.11,47.948
					C1847.883,1271.432,1786.595,1278.355,1721.419,1278.355z M1478.735,697.78v513.13c0,17.005,25.746,33.778,70.637,46.019
					c45.942,12.527,107.043,19.427,172.047,19.427s126.104-6.899,172.047-19.427c44.891-12.24,70.637-29.014,70.637-46.019V697.78
					H1478.735z"/>
				<ellipse style="fill:#FFFFFF;" cx="1721.419" cy="696.678" rx="243.684" ry="66.445"/>
				<ellipse style="fill:#F2E6DC;" cx="1721.419" cy="691.71" rx="191.928" ry="41.936"/>
				<path style="fill:#FFFFFF;" d="M1721.419,935.533c-65.177,0-126.465-6.924-172.573-19.496
					c-46.501-12.68-72.11-29.708-72.11-47.948c0-0.553,0.447-1,1-1s1,0.447,1,1c0,17.005,25.746,33.778,70.636,46.018
					c45.942,12.527,107.044,19.426,172.048,19.426s126.105-6.898,172.048-19.426c44.89-12.24,70.636-29.014,70.636-46.018
					c0-0.553,0.447-1,1-1s1,0.447,1,1c0,18.24-25.609,35.268-72.11,47.948C1847.884,928.609,1786.596,935.533,1721.419,935.533z"/>
				<path style="fill:#FFFFFF;" d="M1721.419,1106.944c-65.177,0-126.465-6.924-172.573-19.496
					c-46.501-12.68-72.11-29.708-72.11-47.948c0-0.553,0.447-1,1-1s1,0.447,1,1c0,17.005,25.746,33.778,70.636,46.019
					c45.942,12.527,107.044,19.426,172.048,19.426s126.105-6.898,172.048-19.426c44.89-12.24,70.636-29.014,70.636-46.019
					c0-0.553,0.447-1,1-1s1,0.447,1,1c0,18.24-25.609,35.269-72.11,47.948C1847.884,1100.021,1786.596,1106.944,1721.419,1106.944z"
					/>
			</g>
		</g>
		<g>
			<g>
				<path style="fill:#F7F1EB;" d="M1895.028,1037.843c0,0-371.801-12.341-375.312,1.301l-109.425,425.073h600.076l109.422-425.069
					C2123.302,1025.506,1895.028,1037.843,1895.028,1037.843z"/>
				<polygon style="fill:#8B865C;" points="2131.654,993.052 1531.577,993.052 1519.713,1039.149 2119.79,1039.149 				"/>
				<path style="fill:#FFFFFF;" d="M1566.698,1016.423c-1.49,5.79-7.393,10.484-13.183,10.484c-5.791,0-9.276-4.694-7.786-10.484
					c1.49-5.79,7.392-10.484,13.183-10.484C1564.702,1005.938,1568.188,1010.632,1566.698,1016.423z"/>
				<path style="fill:#FFFFFF;" d="M1600.573,1016.423c-1.49,5.79-7.393,10.484-13.183,10.484c-5.791,0-9.276-4.694-7.786-10.484
					c1.49-5.79,7.392-10.484,13.183-10.484C1598.578,1005.938,1602.064,1010.632,1600.573,1016.423z"/>
				<path style="fill:#FFFFFF;" d="M1634.449,1016.423c-1.49,5.79-7.392,10.484-13.183,10.484s-9.276-4.694-7.786-10.484
					c1.49-5.79,7.392-10.484,13.183-10.484C1632.453,1005.938,1635.939,1010.632,1634.449,1016.423z"/>
			</g>
			<g>
				<polygon style="fill:#8B865C;" points="1878.411,1176.411 1517.673,1176.411 1521.753,1160.559 1882.491,1160.559 				"/>
				<polygon style="fill:#9E9569;" points="2032.073,1176.411 1902.427,1176.411 1906.507,1160.559 2036.153,1160.559 				"/>
				<polygon style="fill:#776E42;" points="1775.592,1227.633 1671.556,1227.633 1675.636,1211.78 1779.672,1211.78 				"/>
				<polygon style="fill:#8B865C;" points="2006.086,1227.633 1799.608,1227.633 1803.688,1211.78 2010.166,1211.78 				"/>
				<polygon style="fill:#9E9569;" points="1736.044,1381.295 1632.008,1381.295 1636.088,1365.442 1740.124,1365.442 				"/>
				<polygon style="fill:#776E42;" points="1966.538,1381.295 1760.06,1381.295 1764.14,1365.442 1970.618,1365.442 				"/>
				<polygon style="fill:#9E9569;" points="1941.682,1278.853 1722.4,1278.853 1726.48,1263 1945.762,1263 				"/>
				<polygon style="fill:#8B865C;" points="1826.058,1330.074 1709.217,1330.074 1713.297,1314.221 1830.138,1314.221 				"/>
			</g>
			<g>
				<path style="fill:#363E44;" d="M1583.569,1133.631c-0.306,0-0.607-0.14-0.804-0.403l-19.688-26.511l33.114-26.335
					c0.432-0.345,1.061-0.272,1.404,0.16c0.344,0.432,0.272,1.061-0.16,1.404l-31.599,25.132l18.533,24.956
					c0.329,0.444,0.237,1.07-0.206,1.399C1583.985,1133.566,1583.776,1133.631,1583.569,1133.631z"/>
				<path style="fill:#363E44;" d="M1625.722,1133.631c-0.295,0-0.586-0.129-0.783-0.378c-0.344-0.432-0.272-1.061,0.16-1.404
					l31.6-25.132l-18.534-24.956c-0.329-0.443-0.237-1.07,0.206-1.399c0.445-0.329,1.07-0.236,1.399,0.206l19.688,26.511
					l-33.115,26.335C1626.159,1133.56,1625.939,1133.631,1625.722,1133.631z"/>
				<path style="fill:#363E44;" d="M1594.041,1132.045c-0.201,0-0.404-0.061-0.581-0.187c-0.449-0.321-0.553-0.946-0.231-1.396
					l34.688-48.477c0.322-0.448,0.944-0.553,1.396-0.231c0.449,0.321,0.553,0.946,0.231,1.396l-34.688,48.477
					C1594.66,1131.899,1594.353,1132.045,1594.041,1132.045z"/>
			</g>
		</g>
		<g>
			<g>
				<path style="fill:#363E44;" d="M1041.472,1211.251c-0.274,0-0.548-0.008-0.823-0.023c-11.51-0.644-20.121-14.617-19.196-31.149
					c0.444-7.941,2.991-15.302,7.173-20.724c4.268-5.534,9.732-8.427,15.376-8.091c5.648,0.315,10.754,3.779,14.378,9.754
					c3.552,5.855,5.263,13.453,4.818,21.395C1062.296,1198.549,1052.637,1211.251,1041.472,1211.251z M1043.167,1153.24
					c-4.717,0-9.292,2.582-12.958,7.335c-3.938,5.106-6.339,12.072-6.761,19.614c-0.863,15.432,6.903,28.459,17.312,29.042
					c0.241,0.013,0.482,0.02,0.722,0.02c10.108,0.001,18.877-11.876,19.72-26.95c0.422-7.542-1.188-14.732-4.532-20.246
					c-3.271-5.394-7.81-8.517-12.779-8.795C1043.648,1153.247,1043.407,1153.24,1043.167,1153.24z"/>
				<path style="fill:#BC8271;" d="M1035.997,1175.709c2.569-45.198,0.083-71.769-18.399-92.287
					c-24.839-27.574-65.525-23.79-69.766-23.331c-2.708,0.293-41.457,2.141-61.828,35.439
					c-20.118,32.884-22.119,75.274-3.027,108.362l-33.11,78.465c-10.63,25.19,1.174,54.228,26.364,64.858l5.706,2.408
					c25.19,10.63,54.228-1.174,64.858-26.364l22.118-52.415c16.544,5.406,31.141,6.109,39.623,0.154
					C1023.728,1260.329,1032.972,1228.934,1035.997,1175.709z"/>
				<path style="fill:#363E44;" d="M1097.565,1038.013c-9.971-2.408-19.942-4.817-29.913-7.225
					c-0.857,3.582-2.049,7.392-3.709,11.336c-0.608,1.444-1.245,2.83-1.904,4.157c-1.094,2.204-3.575,3.351-5.963,2.756
					c-2.388-0.594-4.045-2.77-3.977-5.231c0.003-0.117,0.006-0.233,0.009-0.351c0.146-6.364-0.529-12.006-1.487-16.781
					c-36.456-8.805-72.913-17.61-109.37-26.415c0.913,4.194,2.765,15.444-2.676,27.678c-8.211,18.461-26.331,24.102-29.121,24.921
					c-33.082,14.931-55.35,46.049-57.489,80.768c-2.577,41.824,25.251,69.553,29.527,73.675c7.754,2.044,15.731,4.015,23.919,5.892
					c15.696,3.598,30.866,6.551,45.429,8.967c-10.856-9.478-12.911-23.75-9.279-36.323c3.979-13.775,19.839-24.337,33.682-19.096
					c8.792,3.329,14.019,10.867,14.368,27.819c6.241-0.567,13.777-1.638,20.018-2.205c-1.131-16.282-2.263-32.563-3.394-48.844
					c2.564-0.145,61.438-4.417,84.367-52.022C1101.267,1069.349,1099.243,1048.032,1097.565,1038.013z"/>
				<path style="fill:#363E44;" d="M988.519,1184.512c-0.491,0-0.92-0.361-0.989-0.861c-0.076-0.548,0.305-1.053,0.852-1.129
					l72.54-10.122c0.54-0.079,1.052,0.305,1.129,0.852c0.076,0.548-0.305,1.053-0.852,1.129l-72.54,10.122
					C988.612,1184.509,988.565,1184.512,988.519,1184.512z"/>
				<path style="fill:#363E44;" d="M970.154,1270.905c-0.121,0-0.244-0.021-0.364-0.068c-0.515-0.201-0.768-0.781-0.567-1.296
					l7.587-19.404c0.2-0.515,0.779-0.77,1.296-0.567c0.515,0.201,0.768,0.781,0.567,1.296l-7.587,19.404
					C970.932,1270.664,970.554,1270.905,970.154,1270.905z"/>
				<path style="fill:#363E44;" d="M968.206,1202.49c-0.411,0-0.797-0.255-0.942-0.665c-1.175-3.303-2.178-6.294-3.24-9.46
					c-0.866-2.581-1.759-5.241-2.789-8.201c-0.182-0.521,0.094-1.092,0.615-1.273c0.524-0.182,1.093,0.095,1.273,0.615
					c1.033,2.969,1.928,5.636,2.796,8.223c1.06,3.158,2.061,6.141,3.229,9.427c0.185,0.521-0.087,1.092-0.607,1.277
					C968.431,1202.472,968.317,1202.49,968.206,1202.49z"/>
			</g>
			<path style="fill:#363E44;" d="M451.757,1994.609c0,0-21.181,110.17,33.74,161.765H1486.23c0,0,117.416-280.357-497.71-257.108
				L451.757,1994.609z"/>
			<g>
				<g>
					<path style="fill:#BC8271;" d="M447.149,1581.814c-7.072,1.523-37.544,73.714-68.114,150.493
						c-34.964,87.814,29.388,183.305,123.904,183.98l31.267,0.223l129.064-355.829L447.149,1581.814z"/>
					<path style="fill:#8B865C;" d="M551.513,1592.411H397.24l75.428-151.86c37.698-75.898,115.131-123.896,199.876-123.896h235.53
						L551.513,1592.411z"/>
				</g>
				<g>
					<path style="fill:#BC8271;" d="M1224.086,1398.456c87.162,35.267,167.26,55.545,223.585,96.246
						c69.745,50.398,97.551,125.862,65.805,159.623c-33.288,35.4-165.378,61.246-341.906-18.739
						C1175.673,1563.38,1180.63,1470.757,1224.086,1398.456z"/>
					<path style="fill:#BC8271;" d="M1372.829,1494.201c21.285-49.919,74.664-161.448,120.28-244.236
						c47.906-86.945,131.295-208.337,148.127-196.453c9.587,6.769,1.637,25.676-22.971,74.799c3.728-1.24,15.186-2.749,23.048,4.987
						c11.636,11.449,5.727,23.939,5.64,25.266c1.23-0.523,14.636-5.787,23.723,0.558c10.235,7.148,12.705,17.691,10.727,27.286
						c3.092-1.202,14.95-4.478,23.504,1.878c8.798,6.538,13.237,19.75,7.57,29.684c-10.396,18.224-42.33,71.795-54.693,99.76
						c-24.33,55.029-84.499,262.048-140.685,332.289C1475.829,1584.004,1414.099,1560.215,1372.829,1494.201z"/>
					<path style="fill:#363E44;" d="M1587.431,1148.691c-0.216,0-0.434-0.069-0.616-0.213l-13.075-10.263
						c-0.435-0.342-0.511-0.97-0.17-1.404c0.342-0.436,0.971-0.512,1.404-0.17l13.075,10.263c0.435,0.342,0.511,0.97,0.17,1.404
						C1588.021,1148.561,1587.728,1148.691,1587.431,1148.691z"/>
					<path style="fill:#363E44;" d="M1620.646,1174.687c-0.216,0-0.434-0.069-0.616-0.214l-13.075-10.264
						c-0.435-0.341-0.511-0.97-0.169-1.403c0.341-0.435,0.97-0.513,1.403-0.169l13.075,10.264c0.435,0.341,0.511,0.97,0.169,1.403
						C1621.236,1174.556,1620.943,1174.687,1620.646,1174.687z"/>
					<path style="fill:#363E44;" d="M1654.759,1200.783c-0.216,0-0.434-0.069-0.616-0.214l-13.075-10.264
						c-0.435-0.341-0.511-0.97-0.169-1.403c0.341-0.436,0.969-0.513,1.403-0.169l13.075,10.264c0.435,0.341,0.511,0.97,0.169,1.403
						C1655.349,1200.652,1655.056,1200.783,1654.759,1200.783z"/>
					<path style="fill:#363E44;" d="M1685.209,1225.087c-0.216,0-0.434-0.069-0.616-0.213l-13.075-10.264
						c-0.435-0.341-0.511-0.969-0.169-1.403c0.341-0.435,0.97-0.512,1.403-0.169l13.075,10.262c0.435,0.342,0.511,0.97,0.17,1.404
						C1685.8,1224.956,1685.506,1225.087,1685.209,1225.087z"/>
				</g>
				<g>
					<path style="fill:#8B865C;" d="M818.255,1316.655c251.501-5.949,459.657,89.312,459.657,89.312l-24.079,273.458l-106.877,1.984
						l-65.089,219.829l-79.084-2.261l-52.456,138.924l-553.087,6.269l105.095-373.125
						C502.335,1671.046,556.684,1322.842,818.255,1316.655z"/>
					<path style="fill:#363E44;" d="M1148.014,1680.651c-0.533,0-0.976-0.421-0.998-0.959c-0.371-8.938-0.561-19.938-0.743-30.574
						c-0.184-10.626-0.373-21.612-0.742-30.527c-0.023-0.552,0.406-1.018,0.958-1.04c0.538-0.013,1.017,0.405,1.04,0.958
						c0.371,8.938,0.561,19.938,0.743,30.574c0.184,10.626,0.373,21.612,0.742,30.527c0.023,0.552-0.406,1.018-0.958,1.04
						C1148.042,1680.651,1148.028,1680.651,1148.014,1680.651z"/>
					<path style="fill:#363E44;" d="M521.992,1582.814c-0.092,0-0.186-0.013-0.28-0.04c-0.53-0.154-0.834-0.71-0.68-1.24
						l30.001-102.891c0.154-0.529,0.701-0.837,1.24-0.68c0.53,0.154,0.834,0.71,0.68,1.24l-30.001,102.891
						C522.825,1582.531,522.426,1582.814,521.992,1582.814z"/>
				</g>
				<g>
					<path style="fill:#EFBC73;" d="M668.104,1314.092c0,0,27.831-45.042,87.873-45.209c60.043-0.168,280.725,46.795,280.725,46.795
						l10.007,24.902c0,0-175.199,103.4-301.059,118.292S620.74,1355.258,668.104,1314.092z"/>
					<path style="fill:#363E44;" d="M799.2,1368.375c-25.352,0-41.908-4.818-52.719-10.993
						c-15.977-9.125-18.161-20.557-18.246-21.039c-0.097-0.544,0.267-1.063,0.81-1.158c0.55-0.097,1.062,0.266,1.158,0.808
						c0.019,0.11,2.178,11.088,17.398,19.727c26.338,14.949,87.408,21.662,228.779-31.248c0.516-0.193,1.094,0.069,1.287,0.586
						c0.193,0.518-0.068,1.094-0.586,1.287C892.482,1358.006,836.384,1368.375,799.2,1368.375z"/>
				</g>
			</g>
		</g>
		<g>
			<g>
				<path style="fill:#363E44;" d="M2150.505,1888.769h-593.572c-0.553,0-1-0.447-1-1v-120.38c0-0.553,0.447-1,1-1h593.572
					c0.553,0,1,0.447,1,1v120.38C2151.505,1888.321,2151.058,1888.769,2150.505,1888.769z M1557.933,1886.769h591.572v-118.38
					h-591.572V1886.769z"/>
				<rect x="1593.09" y="1783.144" style="fill:#D87355;" width="180.783" height="87.245"/>
				<path style="fill:#363E44;" d="M1797.411,1871.557c-0.553,0-1-0.447-1-1v-24.542c0-0.553,0.447-1,1-1s1,0.447,1,1v24.542
					C1798.411,1871.109,1797.964,1871.557,1797.411,1871.557z"/>
				<path style="fill:#363E44;" d="M1797.411,1822.855c-0.553,0-1-0.447-1-1v-38.712c0-0.553,0.447-1,1-1s1,0.447,1,1v38.712
					C1798.411,1822.408,1797.964,1822.855,1797.411,1822.855z"/>
				<path style="fill:#363E44;" d="M1825.53,1871.557c-0.553,0-1-0.447-1-1v-43.789c0-0.553,0.447-1,1-1s1,0.447,1,1v43.789
					C1826.53,1871.109,1826.083,1871.557,1825.53,1871.557z"/>
				<path style="fill:#363E44;" d="M1825.53,1800.707c-0.553,0-1-0.447-1-1v-16.563c0-0.553,0.447-1,1-1s1,0.447,1,1v16.563
					C1826.53,1800.26,1826.083,1800.707,1825.53,1800.707z"/>
				<path style="fill:#363E44;" d="M1853.649,1871.557c-0.553,0-1-0.447-1-1v-24.542c0-0.553,0.447-1,1-1s1,0.447,1,1v24.542
					C1854.649,1871.109,1854.202,1871.557,1853.649,1871.557z"/>
				<path style="fill:#363E44;" d="M1853.649,1813.388c-0.553,0-1-0.447-1-1v-29.244c0-0.553,0.447-1,1-1s1,0.447,1,1v29.244
					C1854.649,1812.94,1854.202,1813.388,1853.649,1813.388z"/>
				<path style="fill:#363E44;" d="M1881.769,1871.557c-0.553,0-1-0.447-1-1v-48.7c0-0.553,0.447-1,1-1s1,0.447,1,1v48.7
					C1882.769,1871.109,1882.321,1871.557,1881.769,1871.557z"/>
				<path style="fill:#363E44;" d="M1881.769,1803.501c-0.553,0-1-0.447-1-1v-19.357c0-0.553,0.447-1,1-1s1,0.447,1,1v19.357
					C1882.769,1803.054,1882.321,1803.501,1881.769,1803.501z"/>
				<path style="fill:#363E44;" d="M1909.888,1871.557c-0.553,0-1-0.447-1-1v-16.747c0-0.553,0.447-1,1-1s1,0.447,1,1v16.747
					C1910.888,1871.109,1910.44,1871.557,1909.888,1871.557z"/>
				<path style="fill:#363E44;" d="M1909.888,1822.857c-0.553,0-1-0.447-1-1v-38.714c0-0.553,0.447-1,1-1s1,0.447,1,1v38.714
					C1910.888,1822.41,1910.44,1822.857,1909.888,1822.857z"/>
				<path style="fill:#363E44;" d="M1938.007,1871.557c-0.553,0-1-0.447-1-1v-51.874c0-0.553,0.447-1,1-1s1,0.447,1,1v51.874
					C1939.007,1871.109,1938.56,1871.557,1938.007,1871.557z"/>
				<path style="fill:#363E44;" d="M1938.007,1800.707c-0.553,0-1-0.447-1-1v-16.563c0-0.553,0.447-1,1-1s1,0.447,1,1v16.563
					C1939.007,1800.26,1938.56,1800.707,1938.007,1800.707z"/>
			</g>
			<g>
				<path style="fill:#363E44;" d="M2150.505,2020.509h-593.572c-0.553,0-1-0.447-1-1V1899.13c0-0.553,0.447-1,1-1h593.572
					c0.553,0,1,0.447,1,1v120.379C2151.505,2020.062,2151.058,2020.509,2150.505,2020.509z M1557.933,2018.509h591.572V1900.13
					h-591.572V2018.509z"/>
				<rect x="1593.09" y="1914.884" style="fill:#D87355;" width="180.783" height="87.245"/>
				<path style="fill:#363E44;" d="M1797.411,2003.298c-0.553,0-1-0.447-1-1v-24.542c0-0.553,0.447-1,1-1s1,0.447,1,1v24.542
					C1798.411,2002.851,1797.964,2003.298,1797.411,2003.298z"/>
				<path style="fill:#363E44;" d="M1797.411,1954.597c-0.553,0-1-0.447-1-1v-38.713c0-0.553,0.447-1,1-1s1,0.447,1,1v38.713
					C1798.411,1954.149,1797.964,1954.597,1797.411,1954.597z"/>
				<path style="fill:#363E44;" d="M1825.53,2003.298c-0.553,0-1-0.447-1-1v-43.79c0-0.553,0.447-1,1-1s1,0.447,1,1v43.79
					C1826.53,2002.851,1826.083,2003.298,1825.53,2003.298z"/>
				<path style="fill:#363E44;" d="M1825.53,1932.448c-0.553,0-1-0.447-1-1v-16.564c0-0.553,0.447-1,1-1s1,0.447,1,1v16.564
					C1826.53,1932.001,1826.083,1932.448,1825.53,1932.448z"/>
				<path style="fill:#363E44;" d="M1853.649,2003.298c-0.553,0-1-0.447-1-1v-24.542c0-0.553,0.447-1,1-1s1,0.447,1,1v24.542
					C1854.649,2002.851,1854.202,2003.298,1853.649,2003.298z"/>
				<path style="fill:#363E44;" d="M1853.649,1945.128c-0.553,0-1-0.447-1-1v-29.244c0-0.553,0.447-1,1-1s1,0.447,1,1v29.244
					C1854.649,1944.681,1854.202,1945.128,1853.649,1945.128z"/>
				<path style="fill:#363E44;" d="M1881.769,2003.298c-0.553,0-1-0.447-1-1v-48.701c0-0.553,0.447-1,1-1s1,0.447,1,1v48.701
					C1882.769,2002.851,1882.321,2003.298,1881.769,2003.298z"/>
				<path style="fill:#363E44;" d="M1881.769,1935.241c-0.553,0-1-0.447-1-1v-19.357c0-0.553,0.447-1,1-1s1,0.447,1,1v19.357
					C1882.769,1934.794,1882.321,1935.241,1881.769,1935.241z"/>
				<path style="fill:#363E44;" d="M1909.888,2003.298c-0.553,0-1-0.447-1-1v-16.748c0-0.553,0.447-1,1-1s1,0.447,1,1v16.748
					C1910.888,2002.851,1910.44,2003.298,1909.888,2003.298z"/>
				<path style="fill:#363E44;" d="M1909.888,1954.598c-0.553,0-1-0.447-1-1v-38.714c0-0.553,0.447-1,1-1s1,0.447,1,1v38.714
					C1910.888,1954.15,1910.44,1954.598,1909.888,1954.598z"/>
				<path style="fill:#363E44;" d="M1938.007,2003.298c-0.553,0-1-0.447-1-1v-51.875c0-0.553,0.447-1,1-1s1,0.447,1,1v51.875
					C1939.007,2002.851,1938.56,2003.298,1938.007,2003.298z"/>
				<path style="fill:#363E44;" d="M1938.007,1932.448c-0.553,0-1-0.447-1-1v-16.564c0-0.553,0.447-1,1-1s1,0.447,1,1v16.564
					C1939.007,1932.001,1938.56,1932.448,1938.007,1932.448z"/>
			</g>
			<g>
				<path style="fill:#363E44;" d="M2150.505,2152.249h-593.572c-0.553,0-1-0.447-1-1V2030.87c0-0.553,0.447-1,1-1h593.572
					c0.553,0,1,0.447,1,1v120.379C2151.505,2151.802,2151.058,2152.249,2150.505,2152.249z M1557.933,2150.249h591.572V2031.87
					h-591.572V2150.249z"/>
				<rect x="1593.09" y="2046.625" style="fill:#D87355;" width="180.783" height="87.245"/>
				<path style="fill:#363E44;" d="M1797.411,2135.038c-0.553,0-1-0.447-1-1v-24.542c0-0.553,0.447-1,1-1s1,0.447,1,1v24.542
					C1798.411,2134.591,1797.964,2135.038,1797.411,2135.038z"/>
				<path style="fill:#363E44;" d="M1797.411,2086.337c-0.553,0-1-0.447-1-1v-38.712c0-0.553,0.447-1,1-1s1,0.447,1,1v38.712
					C1798.411,2085.89,1797.964,2086.337,1797.411,2086.337z"/>
				<path style="fill:#363E44;" d="M1825.53,2135.038c-0.553,0-1-0.447-1-1v-43.79c0-0.553,0.447-1,1-1s1,0.447,1,1v43.79
					C1826.53,2134.591,1826.083,2135.038,1825.53,2135.038z"/>
				<path style="fill:#363E44;" d="M1825.53,2064.188c-0.553,0-1-0.447-1-1v-16.563c0-0.553,0.447-1,1-1s1,0.447,1,1v16.563
					C1826.53,2063.741,1826.083,2064.188,1825.53,2064.188z"/>
				<path style="fill:#363E44;" d="M1853.649,2135.038c-0.553,0-1-0.447-1-1v-24.542c0-0.553,0.447-1,1-1s1,0.447,1,1v24.542
					C1854.649,2134.591,1854.202,2135.038,1853.649,2135.038z"/>
				<path style="fill:#363E44;" d="M1853.649,2076.869c-0.553,0-1-0.447-1-1v-29.244c0-0.553,0.447-1,1-1s1,0.447,1,1v29.244
					C1854.649,2076.422,1854.202,2076.869,1853.649,2076.869z"/>
				<path style="fill:#363E44;" d="M1881.769,2135.038c-0.553,0-1-0.447-1-1v-48.7c0-0.553,0.447-1,1-1s1,0.447,1,1v48.7
					C1882.769,2134.591,1882.321,2135.038,1881.769,2135.038z"/>
				<path style="fill:#363E44;" d="M1881.769,2066.982c-0.553,0-1-0.447-1-1v-19.357c0-0.553,0.447-1,1-1s1,0.447,1,1v19.357
					C1882.769,2066.535,1882.321,2066.982,1881.769,2066.982z"/>
				<path style="fill:#363E44;" d="M1909.888,2135.038c-0.553,0-1-0.447-1-1v-16.748c0-0.553,0.447-1,1-1s1,0.447,1,1v16.748
					C1910.888,2134.591,1910.44,2135.038,1909.888,2135.038z"/>
				<path style="fill:#363E44;" d="M1909.888,2086.338c-0.553,0-1-0.447-1-1v-38.713c0-0.553,0.447-1,1-1s1,0.447,1,1v38.713
					C1910.888,2085.891,1910.44,2086.338,1909.888,2086.338z"/>
				<path style="fill:#363E44;" d="M1938.007,2135.038c-0.553,0-1-0.447-1-1v-51.875c0-0.553,0.447-1,1-1s1,0.447,1,1v51.875
					C1939.007,2134.591,1938.56,2135.038,1938.007,2135.038z"/>
				<path style="fill:#363E44;" d="M1938.007,2064.188c-0.553,0-1-0.447-1-1v-16.563c0-0.553,0.447-1,1-1s1,0.447,1,1v16.563
					C1939.007,2063.741,1938.56,2064.188,1938.007,2064.188z"/>
			</g>
		</g>
	</g>
</g>
</svg>
