<?xml version="1.0" encoding="utf-8"?>
<!-- Generator: Adobe Illustrator 27.5.0, SVG Export Plug-In . SVG Version: 6.00 Build 0)  -->
<svg version="1.1" id="Layer_1" xmlns="http://www.w3.org/2000/svg" xmlns:xlink="http://www.w3.org/1999/xlink" x="0px" y="0px"
	 viewBox="0 0 3309.165 2000" style="enable-background:new 0 0 3309.165 2000;" xml:space="preserve">
<rect style="fill:#FFFFFF;" width="3309.165" height="2000"/>
<g>
	<g>
		<path style="fill:#DCF4FF;" d="M2927.597,1881.683c394.834-540.332,203.609-1257.673-43.607-1426.449
			c-358.727-244.905-603.057,39.496-974.771,39.099c-399.646-0.427-363.177-425.143-921.924-383.536
			C443.056,151.322,232.005,711.45,203.583,1128.649c-28.965,425.169,65.075,655.77,121.36,753.033H2927.597z"/>
	</g>
	<g>
		<g>
			<g>
				<g>
					<g>
						<g>
							<path style="fill:#DCF4FF;" d="M2502.143,982.76c-26.743-3.99-53.522-3.483-79.382,1.16l-36.181-54.088l-40.853,17.63
								l-40.854,17.63l14.534,63.43c-21.118,15.63-39.858,34.768-55.301,56.963l-63.838-12.664l-16.421,41.354l-16.421,41.354
								l55.136,34.579c-3.99,26.743-3.483,53.523,1.16,79.382l-54.088,36.181l17.631,40.853l17.63,40.853l63.43-14.534
								c15.629,21.118,34.767,39.857,56.961,55.3l-12.664,63.839l41.354,16.421l41.354,16.421l34.58-55.136
								c26.743,3.989,53.522,3.483,79.382-1.161l36.181,54.088l40.853-17.63l40.853-17.63l-14.533-63.431
								c21.118-15.63,39.858-34.767,55.3-56.962l63.839,12.664l16.421-41.354l16.421-41.354l-55.136-34.579
								c3.99-26.743,3.483-53.523-1.16-79.382l54.088-36.181l-17.63-40.853l-17.63-40.854l-63.43,14.534
								c-15.63-21.118-34.768-39.858-56.962-55.3l12.664-63.839l-41.354-16.421l-41.354-16.421L2502.143,982.76z M2621.172,1287.831
								c-34.024,85.684-131.067,127.563-216.751,93.539c-85.685-34.024-127.563-131.067-93.539-216.751
								c34.024-85.684,131.067-127.564,216.751-93.539C2613.317,1105.104,2655.196,1202.147,2621.172,1287.831z"/>
						</g>
					</g>
				</g>
			</g>
		</g>
	</g>
	<g>
		<g>
			<g>
				<g>
					<g>
						<g>
							<path style="fill:#DCF4FF;" d="M2810.019,660.881c-13.337-4.998-27.188-7.683-41.021-8.136l-12.688-31.844l-22.985,4.587
								l-22.985,4.587l0.508,34.274c-12.598,5.729-24.358,13.525-34.755,23.26l-31.493-13.547l-13.009,19.497l-13.009,19.497
								l24.599,23.88c-4.998,13.337-7.683,27.189-8.136,41.021l-31.844,12.688l4.588,22.985l4.587,22.985l34.275-0.508
								c5.728,12.598,13.525,24.357,23.259,34.755l-13.547,31.493l19.497,13.009l19.497,13.009l23.88-24.599
								c13.337,4.997,27.188,7.683,41.021,8.136l12.688,31.844l22.985-4.587l22.985-4.587l-0.508-34.275
								c12.598-5.728,24.358-13.525,34.755-23.259l31.493,13.547l13.009-19.497l13.009-19.497l-24.599-23.88
								c4.998-13.337,7.683-27.189,8.136-41.021l31.844-12.688l-4.587-22.985l-4.587-22.985l-34.275,0.508
								c-5.728-12.599-13.525-24.358-23.26-34.755l13.547-31.493l-19.497-13.009l-19.496-13.009L2810.019,660.881z
								 M2837.772,831.132c-26.954,40.396-81.553,51.293-121.949,24.339c-40.396-26.954-51.293-81.553-24.339-121.949
								c26.954-40.396,81.553-51.294,121.949-24.339C2853.83,736.137,2864.727,790.736,2837.772,831.132z"/>
						</g>
					</g>
				</g>
			</g>
		</g>
	</g>
	<g>
		<g>
			<g>
				<g>
					<g>
						<g>
							<path style="fill:#DCF4FF;" d="M490.691,1500.739c-11.09-4.155-22.607-6.388-34.108-6.765l-10.55-26.478l-19.112,3.814
								l-19.112,3.814l0.423,28.499c-10.475,4.763-20.253,11.246-28.898,19.34l-26.186-11.264l-10.817,16.211l-10.817,16.211
								l20.453,19.855c-4.155,11.09-6.388,22.607-6.765,34.108l-26.478,10.55l3.814,19.112l3.815,19.112l28.499-0.423
								c4.763,10.475,11.246,20.253,19.34,28.898l-11.264,26.186l16.211,10.817l16.211,10.817l19.856-20.453
								c11.09,4.155,22.607,6.388,34.108,6.765l10.55,26.478l19.112-3.814l19.112-3.814l-0.422-28.499
								c10.475-4.763,20.253-11.246,28.898-19.34l26.186,11.264l10.817-16.211l10.817-16.211l-20.453-19.855
								c4.155-11.09,6.388-22.607,6.765-34.108l26.478-10.55l-3.814-19.112l-3.814-19.112l-28.499,0.423
								c-4.763-10.475-11.246-20.253-19.34-28.898l11.264-26.186l-16.211-10.817l-16.211-10.817L490.691,1500.739z M513.767,1642.3
								c-22.412,33.589-67.81,42.65-101.399,20.238s-42.649-67.81-20.237-101.399c22.412-33.589,67.81-42.65,101.399-20.238
								C527.119,1563.313,536.179,1608.711,513.767,1642.3z"/>
						</g>
					</g>
				</g>
			</g>
		</g>
	</g>
	<g>
		<g>
			<g>
				<g>
					<g>
						<g>
							<path style="fill:#DCF4FF;" d="M649.412,948.841c-23.463,0.253-46.339,4.363-67.86,11.891l-38.427-41.379l-32.585,20.715
								l-32.585,20.715l21.161,52.355c-15.949,16.292-29.38,35.263-39.565,56.401l-56.439-2.087l-8.394,37.689l-8.394,37.689
								l51.991,22.061c0.253,23.462,4.363,46.34,11.892,67.86l-41.379,38.427l20.715,32.585l20.715,32.585l52.355-21.161
								c16.291,15.95,35.262,29.379,56.4,39.565l-2.087,56.44l37.689,8.393l37.689,8.394l22.061-51.991
								c23.462-0.253,46.339-4.363,67.86-11.892l38.428,41.379l32.585-20.715l32.586-20.715l-21.161-52.356
								c15.949-16.292,29.38-35.262,39.565-56.4l56.44,2.087l8.393-37.689l8.394-37.689l-51.991-22.061
								c-0.253-23.462-4.363-46.339-11.891-67.86l41.379-38.427l-20.715-32.585L853.52,988.48l-52.355,21.161
								c-16.292-15.95-35.263-29.38-56.4-39.565l2.087-56.439l-37.689-8.394l-37.689-8.394L649.412,948.841z M793.284,1193.904
								c-17.391,78.09-94.794,127.297-172.884,109.906c-78.091-17.391-127.297-94.795-109.906-172.885
								c17.391-78.09,94.794-127.297,172.885-109.906C761.469,1038.41,810.675,1115.813,793.284,1193.904z"/>
						</g>
					</g>
				</g>
			</g>
		</g>
	</g>
	<g>
		<g>
			<g>
				
					<rect x="690.743" y="1185.165" transform="matrix(-1 -1.224647e-16 1.224647e-16 -1 2984.3987 2855.8535)" style="fill:#3F567E;" width="1602.913" height="485.524"/>
			</g>
		</g>
	</g>
	<g>
		<g>
			<g>
				
					<rect x="596.769" y="1161.883" transform="matrix(-1 -1.224647e-16 1.224647e-16 -1 3062.7961 2347.0479)" style="fill:#223749;" width="1869.259" height="23.281"/>
			</g>
		</g>
	</g>
	<g>
		<g>
			<rect x="2106.433" y="1185.164" style="fill:#49597D;" width="299.107" height="700.601"/>
		</g>
	</g>
	<g>
		<g>
			<g>
				<rect x="2082.367" y="1185.164" style="fill:#647BA3;" width="24.066" height="700.601"/>
			</g>
		</g>
	</g>
	<g>
		<g>
			<g>
				<rect x="676.347" y="1185.165" style="fill:#49597D;" width="28.791" height="700.601"/>
			</g>
		</g>
	</g>
	<g>
		<g>
			<rect x="1470.458" y="1161.601" transform="matrix(1 -0.0011 0.0011 1 -1.2376 2.0981)" width="995.569" height="1.624"/>
		</g>
	</g>
	<g>
		<g>
			<rect x="654.974" y="1161.602" width="602.141" height="1.624"/>
		</g>
	</g>
	<g>
		<g>
			<rect x="1471.792" y="1184.352" width="994.235" height="1.624"/>
		</g>
	</g>
	<g>
		<g>
			<rect x="955.799" y="883.965" transform="matrix(0.0018 -1 1 0.0018 -230.6894 2140.1055)" width="1.624" height="603.275"/>
		</g>
	</g>
	<g>
		<g>
			<polygon points="596.231,1185.976 882.009,1185.976 882.009,1184.352 597.307,1184.352 597.307,1162.695 920.048,1162.695 
				920.048,1161.071 596.231,1161.071 			"/>
		</g>
	</g>
	<g>
		<g>
			<path d="M2404.843,1343.9h1.624c0,0-0.114-156.055-0.114-158.736h-1.624C2404.729,1187.845,2404.843,1343.9,2404.843,1343.9z"/>
		</g>
	</g>
	<g>
		<g>
			<rect x="2081.554" y="1185.164" width="1.624" height="700.601"/>
		</g>
	</g>
	<g>
		<g>
			<rect x="2105.621" y="1185.164" width="1.624" height="342.227"/>
		</g>
	</g>
	<g>
		<g>
			<polygon points="2134.155,1242.642 2161.494,1218.157 2160.41,1216.949 2133.071,1241.434 			"/>
		</g>
	</g>
	<g>
		<g>
			<polygon points="2130.691,1261.468 2158.03,1236.983 2156.945,1235.775 2129.606,1260.259 			"/>
		</g>
	</g>
	<g>
		<g>
			<rect x="1746.092" y="1669.877" width="336.274" height="1.624"/>
		</g>
	</g>
	<g>
		<g>
			<rect x="704.04" y="1185.164" width="2.194" height="700.601"/>
		</g>
	</g>
	<g>
		<g>
			<g>
				<g>
					<path style="fill:#0A161E;" d="M966.038,1143.335h78.154l-44.965-219.187h110.95l44.965,219.187h77.902
						c10.986,0,23.243,8.906,27.376,19.891h0H953.632C949.498,1152.24,955.053,1143.335,966.038,1143.335z"/>
				</g>
			</g>
		</g>
		<g>
			<g>
				<g>
					<path style="fill:#1E2B46;" d="M726.184,1059.659l7.064-51.026l44.08-318.421c2.094-15.13,16.057-27.395,31.186-27.395h617.391
						l0.111-0.803c15.548,0,26.446,12.649,24.294,28.197l-51.143,369.448c-1.528,11.039-10.161,20.02-19.244,20.02H739.082
						l0.111-0.803C730.539,1078.877,724.715,1070.272,726.184,1059.659z"/>
				</g>
			</g>
		</g>
		<g>
			<g>
				<g>
					<g>
						<g>
							<polygon style="fill:#223749;" points="1030.176,1156.593 1141.125,1156.593 1093.441,924.148 982.491,924.148 							"/>
						</g>
					</g>
				</g>
			</g>
		</g>
		<g>
			<g>
				<g>
					<g>
						<g>
							<path style="fill:#49597D;" d="M713.525,1008.633l44.08-318.422c2.094-15.129,16.057-27.394,31.187-27.394h617.391
								c15.129,0,25.696,12.265,23.602,27.394l-44.08,318.422H713.525z"/>
						</g>
					</g>
				</g>
			</g>
		</g>
		<g>
			<g>
				<g>
					<g>
						<g>
							<path style="fill:#1E2B46;" d="M1385.705,1008.633l-7.063,51.026c-1.469,10.614-9.676,19.218-18.33,19.218h-640.84
								c-8.654,0-14.479-8.604-13.009-19.218l7.063-51.026H1385.705z"/>
						</g>
					</g>
				</g>
			</g>
		</g>
		<g>
			<g>
				<g>
					<g>
						<g>
							<path style="fill:#8CD2F9;" d="M731.174,994.805l42.048-303.744c1.102-7.962,8.683-14.417,16.932-14.417h610.839
								c8.249,0,14.042,6.455,12.94,14.417l-42.048,303.744H731.174z"/>
						</g>
					</g>
				</g>
			</g>
		</g>
		<g>
			<g>
				<g>
					<g>
						<g>
							<path style="fill:#122330;" d="M936.896,1163.226c-4.134-10.986,1.421-19.891,12.406-19.891h267.004
								c10.986,0,23.242,8.906,27.376,19.891v0L936.896,1163.226z"/>
						</g>
					</g>
				</g>
			</g>
		</g>
		<g>
			<g>
				<g>
					<g>
						<g>
							<path style="fill:#21111D;" d="M719.359,1079.68h640.84c9.083,0,17.716-8.981,19.244-20.02l51.143-369.448
								c2.152-15.548-8.745-28.197-24.294-28.197l-0.222,1.606c14.662,0,24.94,11.929,22.91,26.591l-51.143,369.448
								c-1.406,10.154-9.219,18.414-17.416,18.414h-640.84L719.359,1079.68z"/>
						</g>
					</g>
				</g>
			</g>
		</g>
		<g>
			<g>
				<g>
					<g>
						<g>
							<polygon style="fill:#21111D;" points="751.354,1044.223 752.789,1043.286 740.436,1021.988 739.002,1022.924 							"/>
						</g>
					</g>
				</g>
			</g>
		</g>
		<g>
			<g>
				<g>
					<g>
						<g>
							<polygon style="fill:#21111D;" points="749.966,1054.3 751.39,1053.346 738.957,1032.629 737.533,1033.582 							"/>
						</g>
					</g>
				</g>
			</g>
		</g>
		<g>
			<g>
				<g>
					<g>
						<g>
							<polygon style="fill:#21111D;" points="1101.639,1097.575 1102.87,1096.778 1092.53,1083.458 1091.299,1084.255 							"/>
						</g>
					</g>
				</g>
			</g>
		</g>
		<g>
			<g>
				<g>
					<g>
						<g>
							<polygon style="fill:#21111D;" points="1101.938,1105.233 1103.156,1104.421 1093.868,1092.689 1092.649,1093.502 							"/>
						</g>
					</g>
				</g>
			</g>
		</g>
		<g>
			<g>
				<g>
					<g>
						<g>
							<path style="fill:#21111D;" d="M730.26,995.608h641.514l0.222-1.606H732.088l41.937-302.941
								c1.039-7.507,8.225-13.614,16.017-13.614l0.222-1.606c-8.679,0-16.684,6.827-17.845,15.219L730.26,995.608z"/>
						</g>
					</g>
				</g>
			</g>
		</g>
		<g>
			<path style="opacity:0.5;fill:#FFFFFF;" d="M1328.64,974.174H783.275c-10.389,0-17.525-8.411-15.94-18.786l35.164-230.112
				c1.585-10.375,11.292-18.786,21.681-18.786h545.364c10.389,0,17.525,8.411,15.94,18.786l-35.164,230.112
				C1348.735,965.763,1339.028,974.174,1328.64,974.174z"/>
			<g>
				<polygon style="opacity:0.5;fill:#9BC1F9;" points="1342.329,733.713 1075.6,733.713 1071.495,760.577 1338.224,760.577 				"/>
				<polygon style="opacity:0.5;fill:#9BC1F9;" points="1336.235,773.59 1069.506,773.59 1065.401,800.454 1332.13,800.454 				"/>
				<polygon style="opacity:0.5;fill:#9BC1F9;" points="1330.141,813.468 1063.413,813.468 1059.307,840.331 1326.036,840.331 				
					"/>
				<polygon style="fill:#9BC1F9;" points="1126.018,733.713 1075.6,733.713 1071.495,760.577 1121.913,760.577 				"/>
				<polygon style="fill:#9BC1F9;" points="1193.177,773.59 1069.506,773.59 1065.401,800.454 1189.072,800.454 				"/>
				<polygon style="fill:#9BC1F9;" points="1122.781,813.468 1063.413,813.468 1059.307,840.331 1118.676,840.331 				"/>
			</g>
			<polygon style="fill:#9BC1F9;" points="816.431,845.278 1002.059,845.278 971.635,764.243 939.988,805.62 925.512,779.704 
				903.296,810.837 891.888,748.783 857.362,817.067 847.38,800.747 			"/>
			<g>
				<polygon style="opacity:0.5;fill:#9BC1F9;" points="1317.716,894.78 818.743,894.78 821.606,876.049 1320.578,876.049 				"/>
				<polygon style="fill:#9BC1F9;" points="1314.76,914.124 815.787,914.124 816.488,909.539 1315.46,909.539 				"/>
				<polygon style="opacity:0.5;fill:#9BC1F9;" points="1312.074,931.699 813.102,931.699 813.802,927.114 1312.775,927.114 				"/>
				<polygon style="fill:#9BC1F9;" points="1309.389,949.274 810.416,949.274 811.117,944.689 1310.089,944.689 				"/>
			</g>
		</g>
	</g>
	<g>
		<g>
			<g>
				<g>
					<path style="fill:#0A161E;" d="M1771.975,1144.651h78.153l-44.965-219.186h110.949l44.965,219.186h77.902
						c10.986,0,23.243,8.906,27.376,19.891h0h-306.787C1755.434,1153.557,1760.989,1144.651,1771.975,1144.651z"/>
				</g>
			</g>
		</g>
		<g>
			<g>
				<g>
					<path style="fill:#1E2B46;" d="M1532.12,1060.975l7.064-51.026l44.08-318.421c2.094-15.13,16.057-27.394,31.187-27.394h617.391
						l0.111-0.803c15.548,0,26.446,12.649,24.294,28.197l-51.143,369.448c-1.529,11.039-10.161,20.02-19.244,20.02h-640.841
						l0.111-0.803C1536.476,1080.193,1530.651,1071.589,1532.12,1060.975z"/>
				</g>
			</g>
		</g>
		<g>
			<g>
				<g>
					<g>
						<g>
							<polygon style="fill:#223749;" points="1836.112,1157.91 1947.062,1157.91 1899.377,925.465 1788.427,925.465 							"/>
						</g>
					</g>
				</g>
			</g>
		</g>
		<g>
			<g>
				<g>
					<g>
						<g>
							<path style="fill:#49597D;" d="M1519.461,1009.949l44.079-318.422c2.094-15.129,16.057-27.394,31.187-27.394h617.392
								c15.129,0,25.696,12.265,23.602,27.394l-44.08,318.422H1519.461z"/>
						</g>
					</g>
				</g>
			</g>
		</g>
		<g>
			<g>
				<g>
					<g>
						<g>
							<path style="fill:#1E2B46;" d="M2191.641,1009.949l-7.063,51.026c-1.469,10.614-9.676,19.218-18.33,19.218h-640.841
								c-8.654,0-14.479-8.604-13.009-19.218l7.063-51.026H2191.641z"/>
						</g>
					</g>
				</g>
			</g>
		</g>
		<g>
			<g>
				<g>
					<g>
						<g>
							<path style="fill:#8CD2F9;" d="M1537.11,996.121l42.048-303.744c1.102-7.962,8.683-14.417,16.932-14.417h610.839
								c8.249,0,14.042,6.455,12.94,14.417l-42.048,303.744H1537.11z"/>
						</g>
					</g>
				</g>
			</g>
		</g>
		<g>
			<g>
				<g>
					<g>
						<g>
							<path style="fill:#122330;" d="M1742.833,1164.542c-4.134-10.986,1.421-19.891,12.406-19.891h267.004
								c10.986,0,23.243,8.906,27.376,19.891v0L1742.833,1164.542z"/>
						</g>
					</g>
				</g>
			</g>
		</g>
		<g>
			<g>
				<g>
					<g>
						<g>
							<path style="fill:#21111D;" d="M1525.296,1080.996h640.84c9.083,0,17.716-8.981,19.244-20.02l51.143-369.448
								c2.153-15.548-8.745-28.197-24.294-28.197l-0.222,1.606c14.662,0,24.94,11.929,22.91,26.591l-51.143,369.448
								c-1.406,10.154-9.219,18.414-17.416,18.414h-640.84L1525.296,1080.996z"/>
						</g>
					</g>
				</g>
			</g>
		</g>
		<g>
			<g>
				<g>
					<g>
						<g>
							<polygon style="fill:#21111D;" points="1557.291,1045.539 1558.725,1044.603 1546.372,1023.304 1544.938,1024.24 							"/>
						</g>
					</g>
				</g>
			</g>
		</g>
		<g>
			<g>
				<g>
					<g>
						<g>
							<polygon style="fill:#21111D;" points="1555.902,1055.616 1557.326,1054.662 1544.893,1033.945 1543.469,1034.898 							"/>
						</g>
					</g>
				</g>
			</g>
		</g>
		<g>
			<g>
				<g>
					<g>
						<g>
							<polygon style="fill:#21111D;" points="1907.575,1098.891 1908.806,1098.094 1898.467,1084.774 1897.235,1085.571 							"/>
						</g>
					</g>
				</g>
			</g>
		</g>
		<g>
			<g>
				<g>
					<g>
						<g>
							<polygon style="fill:#21111D;" points="1907.874,1106.549 1909.092,1105.737 1899.804,1094.006 1898.585,1094.818 							"/>
						</g>
					</g>
				</g>
			</g>
		</g>
		<g>
			<g>
				<g>
					<g>
						<g>
							<path style="fill:#21111D;" d="M1536.196,996.924h641.514l0.222-1.606h-639.908l41.937-302.941
								c1.039-7.507,8.225-13.613,16.017-13.613l0.222-1.606c-8.678,0-16.684,6.827-17.845,15.219L1536.196,996.924z"/>
						</g>
					</g>
				</g>
			</g>
		</g>
		<g>
			<g>
				<path style="opacity:0.5;fill:#FFFFFF;" d="M2130.211,971.287h-537.912c-10.247,0-17.38-8.419-15.932-18.804l32.115-230.33
					c1.448-10.385,10.928-18.804,21.175-18.804h537.912c10.247,0,17.38,8.419,15.932,18.804l-32.115,230.33
					C2149.939,962.869,2140.458,971.287,2130.211,971.287z"/>
			</g>
			<g>
				<polygon style="opacity:0.5;fill:#9BC1F9;" points="2075.082,919.54 2049.426,919.54 2077.477,718.354 2103.134,718.354 				"/>
				<polygon style="opacity:0.5;fill:#9BC1F9;" points="2039.41,918.406 2013.753,918.406 2033.248,778.586 2058.905,778.586 				
					"/>
				<polygon style="opacity:0.5;fill:#9BC1F9;" points="2111.429,919.54 2085.772,919.54 2107.746,761.943 2133.402,761.943 				"/>
				<polygon style="opacity:0.5;fill:#9BC1F9;" points="2003.579,918.406 1977.922,918.406 2000.76,754.61 2026.417,754.61 				"/>
				<polygon style="opacity:0.5;fill:#9BC1F9;" points="1967.748,918.406 1942.091,918.406 1958.157,803.174 1983.814,803.174 				
					"/>
				<g>
					<polygon style="fill:#9BC1F9;" points="2075.082,919.54 2049.426,919.54 2071.17,763.587 2096.827,763.587 					"/>
					<polygon style="fill:#9BC1F9;" points="2039.41,918.406 2013.753,918.406 2028.755,810.81 2054.412,810.81 					"/>
					<polygon style="fill:#9BC1F9;" points="2111.429,919.54 2085.772,919.54 2102.84,797.13 2128.496,797.13 					"/>
					<polygon style="fill:#9BC1F9;" points="2003.579,918.406 1977.922,918.406 1995.496,792.36 2021.153,792.36 					"/>
					<polygon style="fill:#9BC1F9;" points="1967.748,918.406 1942.091,918.406 1954.455,829.732 1980.111,829.732 					"/>
				</g>
				<polygon style="fill:#5183BF;" points="2141.954,751.105 2119.306,765.401 2125.953,766.589 2078.755,827.542 2060.015,788.357 
					2003.408,884.474 1983.245,858.295 1958.873,895.364 1950.49,887.588 1929.605,919.673 1935.007,922.732 1951.176,897.891 
					1959.529,905.64 1983.133,869.74 2003.628,896.347 2058.974,802.371 2076.945,839.948 2131.013,770.132 2134.167,776.068 				
					"/>
			</g>
			<g>
				<polygon style="fill:#9BC1F9;" points="1629.175,922.973 1622.522,922.973 1627.353,888.321 1634.007,888.321 				"/>
				<polygon style="fill:#9BC1F9;" points="1641.766,918.642 1635.112,918.642 1638.735,892.653 1645.389,892.653 				"/>
				<polygon style="fill:#9BC1F9;" points="1653.148,922.973 1646.494,922.973 1651.326,888.321 1657.979,888.321 				"/>
				<polygon style="fill:#86B6EF;" points="1663.057,937.867 1656.404,937.867 1665.537,872.363 1672.191,872.363 				"/>
				<polygon style="fill:#9BC1F9;" points="1676.198,929.584 1669.545,929.584 1676.22,881.71 1682.874,881.71 				"/>
				<polygon style="fill:#86B6EF;" points="1783.369,937.867 1776.716,937.867 1785.849,872.363 1792.502,872.363 				"/>
				<polygon style="fill:#9BC1F9;" points="1796.987,926.165 1790.333,926.165 1796.055,885.129 1802.709,885.129 				"/>
				<polygon style="fill:#9BC1F9;" points="1809.667,915.222 1803.014,915.222 1805.684,896.072 1812.338,896.072 				"/>
				<polygon style="fill:#9BC1F9;" points="1819.668,920.921 1813.014,920.921 1817.273,890.373 1823.927,890.373 				"/>
				<polygon style="fill:#86B6EF;" points="1828.452,937.024 1821.798,937.024 1830.548,874.27 1837.202,874.27 				"/>
				<polygon style="fill:#9BC1F9;" points="1842.388,918.642 1835.734,918.642 1839.358,892.653 1846.012,892.653 				"/>
				<polygon style="fill:#9BC1F9;" points="1853.119,926.165 1846.465,926.165 1852.187,885.129 1858.84,885.129 				"/>
				<polygon style="fill:#86B6EF;" points="1862.305,938.931 1855.651,938.931 1864.933,872.363 1871.587,872.363 				"/>
				<polygon style="fill:#9BC1F9;" points="1875.151,924.113 1868.497,924.113 1873.933,885.129 1880.586,885.129 				"/>
				<polygon style="fill:#9BC1F9;" points="1887.727,914.588 1881.074,914.588 1883.853,894.654 1890.507,894.654 				"/>
				<polygon style="fill:#9BC1F9;" points="1899.169,910.511 1892.516,910.511 1894.158,898.731 1900.812,898.731 				"/>
				<polygon style="fill:#9BC1F9;" points="1619.088,913.17 1612.434,913.17 1614.818,896.072 1621.472,896.072 				"/>
				<polygon style="fill:#86B6EF;" points="1734.29,937.867 1727.636,937.867 1736.769,872.363 1743.423,872.363 				"/>
				<polygon style="fill:#9BC1F9;" points="1747.431,929.584 1740.777,929.584 1747.452,881.71 1754.106,881.71 				"/>
				<polygon style="fill:#9BC1F9;" points="1689.71,918.642 1683.057,918.642 1686.68,892.653 1693.334,892.653 				"/>
				<polygon style="fill:#9BC1F9;" points="1702.173,915.222 1695.52,915.222 1698.19,896.072 1704.843,896.072 				"/>
				<polygon style="fill:#9BC1F9;" points="1761.921,918.642 1755.268,918.642 1758.891,892.653 1765.545,892.653 				"/>
				<polygon style="fill:#9BC1F9;" points="1772.859,926.165 1766.205,926.165 1771.927,885.129 1778.58,885.129 				"/>
				<polygon style="fill:#9BC1F9;" points="1713.365,920.921 1706.711,920.921 1710.971,890.373 1717.624,890.373 				"/>
				<polygon style="fill:#9BC1F9;" points="1724.62,926.165 1717.967,926.165 1723.688,885.129 1730.342,885.129 				"/>
			</g>
			
				<ellipse transform="matrix(0.6992 -0.7149 0.7149 0.6992 -53.6202 1437.2126)" style="fill:#9BC1F9;" cx="1681.128" cy="782.327" rx="63.827" ry="55.443"/>
			<g>
				<path style="opacity:0.5;fill:#9BC1F9;" d="M1854.713,722.581c-31.187,1.936-59.299,27.938-63.734,59.746
					c-4.435,31.808,16.427,57.811,47.073,59.746L1854.713,722.581z"/>
				<path style="fill:#86B6EF;" d="M1853.926,781.273l51.862-28.047c-7.116-17.326-23.211-29.353-43.679-30.645L1853.926,781.273z"
					/>
				<path style="fill:#9BC1F9;" d="M1852.719,789.925l-7.271,52.148c31.186-1.936,59.299-27.938,63.734-59.746
					c1.1-7.891,0.628-15.417-1.147-22.316L1852.719,789.925z"/>
			</g>
		</g>
	</g>
	<g>
		<g>
			<g>
				<g>
					<g>
						<g>
							<g>
								<g>
									<g>
										<g>
											<g>
												<g>
													<path style="fill:#FE9F73;" d="M1334.712,753.431v66.884c0,0,0.942,22.609-18.842,25.435l3.694,30.165
														c1.373,11.212-5.332,21.947-16.102,25.357c-5.266,1.667-11.552,2.885-18.682,2.885
														c-22.61,0-34.858-16.956-36.742-25.435c-1.884-8.478,3.768-48.986,3.768-48.986l-0.689-19.905l2.573-77.125
														L1334.712,753.431z"/>
												</g>
											</g>
										</g>
									</g>
								</g>
							</g>
						</g>
					</g>
				</g>
			</g>
			<g>
				<g>
					<g>
						<g>
							<g>
								<g>
									<g>
										<g>
											<g>
												<g>
													<path style="fill:#21111D;" d="M1256.325,736.422l15.771,22.33c0,0,47.785,18.557,72.28-3.424
														c24.495-21.981,16.957-32.539,9.777-43.543c-3.539-5.425-20.437-16.468-41.163-7.266
														c-11.313,5.023-19.68-9.965-32.869-2.429c-13.189,7.536-28.748,20.588-27.007,25.751
														C1254.856,733.004,1256.325,736.422,1256.325,736.422z"/>
												</g>
											</g>
										</g>
									</g>
								</g>
							</g>
						</g>
					</g>
				</g>
			</g>
			<g>
				<g>
					<g>
						<g>
							<g>
								<g>
									<g>
										<g>
											<g>
												<g>
													<path style="fill:#21111D;" d="M1257.28,727.002c0,0-21.75-1.047-27.822,19.887
														c-6.071,20.934,2.094,31.898,2.303,38.139c0.209,6.241-4.024,48.319,25.519,45.178l7.979-69.501l-10.282-27.67
														L1257.28,727.002z"/>
												</g>
											</g>
										</g>
									</g>
								</g>
							</g>
						</g>
					</g>
				</g>
			</g>
			<g>
				<g>
					<g>
						<g>
							<path style="fill:#21111D;" d="M1320.142,759.973c0,0,1.786,19.651,0,25.01c-1.787,5.359-23.226,19.651-23.226,19.651
								s-1.787,37.516-5.36,39.302c-3.573,1.786-35.254-5.112-45.319-15.061c-10.065-9.949,0.655-88.553,0.655-88.553
								s8.933-10.719,17.866-12.505c8.933-1.786,51.811-5.359,50.025,0C1312.996,733.176,1320.142,759.973,1320.142,759.973z"/>
						</g>
					</g>
				</g>
			</g>
			<g>
				<g>
					<g>
						<g>
							<g>
								<g>
									<g>
										<g>
											<g>
												<g>
													<g>
														<ellipse style="fill:#FE9F73;" cx="1298.178" cy="794.245" rx="16.605" ry="16.957"/>
													</g>
												</g>
											</g>
										</g>
									</g>
								</g>
							</g>
						</g>
					</g>
				</g>
				<g>
					<g>
						<g>
							<g>
								<g>
									<g>
										<g>
											<g>
												<g>
													<g>
														<path style="fill:#F07162;" d="M1296.949,804.636c-3.449,0-5.753-2.648-6.512-5.294
															c-0.897-3.13,0.131-6.17,2.62-7.748c3.678-2.331,7.011-0.835,8.719,0.312c-0.717-1.925-1.84-3.326-3.352-4.175
															c-3.271-1.839-7.329-0.499-7.37-0.485c-0.241,0.083-0.502-0.052-0.583-0.299c-0.08-0.247,0.05-0.513,0.292-0.595
															c0.181-0.062,4.471-1.483,8.1,0.551c2.095,1.174,3.52,3.253,4.236,6.177l0.402,1.64l-1.175-1.192
															c-0.166-0.169-4.115-4.09-8.782-1.133c-2.584,1.638-2.811,4.624-2.221,6.683c0.613,2.138,2.452,4.616,5.623,4.616
															c0.032,0,0.062-0.003,0.095-0.001c0.252,0,0.457,0.206,0.461,0.465c0.004,0.259-0.2,0.474-0.455,0.477
															C1297.015,804.635,1296.982,804.636,1296.949,804.636z"/>
													</g>
												</g>
											</g>
										</g>
									</g>
								</g>
							</g>
						</g>
					</g>
				</g>
			</g>
		</g>
		<g>
			<g>
				<g>
					<polygon style="fill:#EF3A4C;" points="1326.911,879.596 1323.392,861.964 1241.928,849.183 1236.353,870.474 
						1272.873,879.596 					"/>
				</g>
			</g>
		</g>
		<g>
			<g>
				<g>
					<path style="fill:#FE9F73;" d="M1761.629,1116.69c0,0,52.345,0.304,66.04,12.173c13.695,11.869,17.042,33.02,17.042,33.02
						h-103.473L1761.629,1116.69z"/>
				</g>
			</g>
		</g>
		<g>
			<g>
				<g>
					<g>
						<g>
							<g>
								<g>
									<g>
										<g>
											<g>
												<g>
													<g>
														<g>
															<polygon style="fill:#FE9F73;" points="1338.708,1839.989 1238.815,1824.358 1260.101,1717.7 1368.6,1731.677 
																															"/>
														</g>
													</g>
												</g>
											</g>
										</g>
									</g>
								</g>
							</g>
						</g>
					</g>
				</g>
			</g>
			<g>
				<g>
					<g>
						<g>
							<g>
								<g>
									<g>
										<g>
											<g>
												<path style="fill:#E02742;" d="M1237.185,1863.817h94l38.111-42.586l69.707,42.586h15.013
													c5.174,0,9.917,3.589,10.891,8.801c1.311,7.014-3.893,13.146-10.495,13.146h-218.569c-1.606,0-2.908-1.335-2.908-2.983
													v-14.607C1232.936,1865.769,1234.839,1863.817,1237.185,1863.817z"/>
											</g>
										</g>
									</g>
								</g>
							</g>
						</g>
					</g>
				</g>
				<g>
					<g>
						<g>
							<g>
								<g>
									<g>
										<g>
											<g>
												<path style="fill:#F7597F;" d="M1238.016,1863.941v-39.583c0,0,15.831-21.859,39.935-10.702
													c0,0,36.457,26.532,68.596-5.575l79.809,36.316c0,0,21.883,7.503,27.808,19.544H1238.016z"/>
											</g>
										</g>
									</g>
								</g>
							</g>
						</g>
					</g>
				</g>
				<g>
					<g>
						<g>
							<g>
								<g>
									<g>
										<g>
											<g>
												<g>
													<g>
														<rect x="1237.216" y="1824.358" width="1.6" height="39.386"/>
													</g>
												</g>
											</g>
										</g>
									</g>
								</g>
							</g>
						</g>
					</g>
				</g>
				<g>
					<g>
						<g>
							<g>
								<g>
									<g>
										<g>
											<g>
												<g>
													<g>
														<path d="M1310.625,1824.789c3.055,0,4.896-0.267,4.955-0.277l-0.237-1.622c-0.186,0.025-19.026,2.736-36.94-9.91
															l-0.906,1.352C1290.333,1823.393,1303.645,1824.789,1310.625,1824.789z"/>
													</g>
												</g>
											</g>
										</g>
									</g>
								</g>
							</g>
						</g>
					</g>
				</g>
				<g>
					<g>
						<g>
							<g>
								<g>
									<g>
										<g>
											<g>
												<g>
													<g>
														<polygon points="1257.441,1856.548 1258.334,1855.185 1248.14,1848.134 1247.246,1849.496 														"/>
													</g>
												</g>
											</g>
										</g>
									</g>
								</g>
							</g>
						</g>
					</g>
				</g>
				<g>
					<g>
						<g>
							<g>
								<g>
									<g>
										<g>
											<g>
												<g>
													<g>
														<polygon points="1264.751,1854.552 1265.644,1853.193 1255.452,1846.141 1254.557,1847.501 														"/>
													</g>
												</g>
											</g>
										</g>
									</g>
								</g>
							</g>
						</g>
					</g>
				</g>
				<g>
					<g>
						<g>
							<g>
								<g>
									<g>
										<g>
											<g>
												<g>
													<g>
														<g>
															<g>
																<g>
																	<g>
																		<g>
																			<g>
																				<path d="M1461.851,1883.86c2.581-2.246,4.061-5.524,4.061-8.995c0-6.503-5.158-11.795-11.498-11.795H1238.3
																					c-3.399,0-6.164,2.837-6.164,6.324v10.942h1.601v-10.942c0-2.583,2.047-4.683,4.563-4.683h216.114
																					c5.458,0,9.898,4.554,9.898,10.153c0,2.987-1.274,5.81-3.496,7.745L1461.851,1883.86z"/>
																			</g>
																		</g>
																	</g>
																</g>
															</g>
														</g>
													</g>
												</g>
											</g>
										</g>
									</g>
								</g>
							</g>
						</g>
					</g>
				</g>
				<g>
					<g>
						<g>
							<g>
								<g>
									<g>
										<g>
											<g>
												<g>
													<g>
														<path d="M1453.69,1864.242l1.447-0.701c-0.178-0.389-4.557-9.592-20.893-16.738
															c-16.053-7.023-86.661-39.148-87.372-39.472l-0.65,1.501c0.713,0.323,71.332,32.454,87.395,39.482
															C1449.335,1855.191,1453.65,1864.152,1453.69,1864.242z"/>
													</g>
												</g>
											</g>
										</g>
									</g>
								</g>
							</g>
						</g>
					</g>
				</g>
			</g>
		</g>
		<g>
			<g>
				<g>
					<g>
						<g>
							<g>
								<g>
									<g>
										<g>
											<g>
												<g>
													<g>
														<g>
															<polygon style="fill:#FE9F73;" points="1601.743,1839.989 1501.85,1824.358 1523.136,1717.7 1631.635,1731.677 
																															"/>
														</g>
													</g>
												</g>
											</g>
										</g>
									</g>
								</g>
							</g>
						</g>
					</g>
				</g>
			</g>
			<g>
				<g>
					<g>
						<g>
							<g>
								<g>
									<g>
										<g>
											<g>
												<path style="fill:#EF3A4C;" d="M1500.22,1863.817h94l38.111-42.586l69.707,42.586h15.013
													c5.174,0,9.916,3.589,10.891,8.801c1.312,7.014-3.893,13.146-10.495,13.146H1498.88c-1.606,0-2.908-1.335-2.908-2.983
													v-14.607C1495.971,1865.769,1497.874,1863.817,1500.22,1863.817z"/>
											</g>
										</g>
									</g>
								</g>
							</g>
						</g>
					</g>
				</g>
				<g>
					<g>
						<g>
							<g>
								<g>
									<g>
										<g>
											<g>
												<path style="fill:#F7597F;" d="M1501.051,1863.941v-39.583c0,0,15.83-21.859,39.935-10.702
													c0,0,36.458,26.532,68.596-5.575l79.809,36.316c0,0,21.883,7.503,27.808,19.544H1501.051z"/>
											</g>
										</g>
									</g>
								</g>
							</g>
						</g>
					</g>
				</g>
				<g>
					<g>
						<g>
							<g>
								<g>
									<g>
										<g>
											<g>
												<g>
													<g>
														<rect x="1500.251" y="1824.358" width="1.6" height="39.386"/>
													</g>
												</g>
											</g>
										</g>
									</g>
								</g>
							</g>
						</g>
					</g>
				</g>
				<g>
					<g>
						<g>
							<g>
								<g>
									<g>
										<g>
											<g>
												<g>
													<g>
														<path d="M1573.66,1824.789c3.054,0,4.896-0.267,4.955-0.277l-0.237-1.622c-0.186,0.025-19.026,2.736-36.94-9.91
															l-0.906,1.352C1553.368,1823.393,1566.68,1824.789,1573.66,1824.789z"/>
													</g>
												</g>
											</g>
										</g>
									</g>
								</g>
							</g>
						</g>
					</g>
				</g>
				<g>
					<g>
						<g>
							<g>
								<g>
									<g>
										<g>
											<g>
												<g>
													<g>
														<polygon points="1520.476,1856.548 1521.369,1855.185 1511.175,1848.134 1510.281,1849.496 														"/>
													</g>
												</g>
											</g>
										</g>
									</g>
								</g>
							</g>
						</g>
					</g>
				</g>
				<g>
					<g>
						<g>
							<g>
								<g>
									<g>
										<g>
											<g>
												<g>
													<g>
														<polygon points="1527.786,1854.552 1528.679,1853.193 1518.486,1846.141 1517.592,1847.501 														"/>
													</g>
												</g>
											</g>
										</g>
									</g>
								</g>
							</g>
						</g>
					</g>
				</g>
				<g>
					<g>
						<g>
							<g>
								<g>
									<g>
										<g>
											<g>
												<g>
													<g>
														<g>
															<g>
																<g>
																	<g>
																		<g>
																			<g>
																				<path d="M1724.885,1883.86c2.581-2.246,4.061-5.524,4.061-8.995c0-6.503-5.158-11.795-11.498-11.795h-216.114
																					c-3.399,0-6.163,2.837-6.163,6.324v10.942h1.6v-10.942c0-2.583,2.047-4.683,4.563-4.683h216.114
																					c5.458,0,9.898,4.554,9.898,10.153c0,2.987-1.273,5.81-3.495,7.745L1724.885,1883.86z"/>
																			</g>
																		</g>
																	</g>
																</g>
															</g>
														</g>
													</g>
												</g>
											</g>
										</g>
									</g>
								</g>
							</g>
						</g>
					</g>
				</g>
				<g>
					<g>
						<g>
							<g>
								<g>
									<g>
										<g>
											<g>
												<g>
													<g>
														<path d="M1716.725,1864.242l1.447-0.701c-0.178-0.389-4.556-9.592-20.892-16.738
															c-16.053-7.023-86.661-39.148-87.372-39.472l-0.65,1.501c0.713,0.323,71.332,32.454,87.395,39.482
															C1712.37,1855.191,1716.685,1864.152,1716.725,1864.242z"/>
													</g>
												</g>
											</g>
										</g>
									</g>
								</g>
							</g>
						</g>
					</g>
				</g>
			</g>
		</g>
		<g>
			<g>
				<g>
					<g>
						<g>
							<path style="fill:#4CB7D8;" d="M1441.702,1322.738c-25.395-67.813-104.364-83.962-104.364-83.962
								s-168.688-22.365-196.292,24.125c-56.925,95.873,1.705,176.74,51.838,187.874c12.181,2.705,32.753,1.173,55.876,1.868
								c18.621,0.56,50.05-0.71,50.05-0.71l-51.376,290.923c45.806,11.104,123.292,13.348,123.292,13.348
								C1433.132,1608.073,1452.239,1350.876,1441.702,1322.738z"/>
						</g>
					</g>
				</g>
			</g>
		</g>
		<g>
			<g>
				<g>
					<g>
						<g>
							<path style="fill:#4CB7D8;" d="M1702.126,1389.123c2.546-78.925-282.55-93.708-282.55-93.708s-160.473-56.363-188.076-9.873
								c-56.926,95.873,1.705,176.741,51.838,187.874c12.182,2.705,32.756,1.077,55.876,1.868
								c66.383,2.272,158.875,1.015,172.962,0.804l0.02,0.035l44.425-1.549l-51.376,290.923
								c45.806,11.104,123.292,13.348,123.292,13.348C1690.942,1630.715,1701.157,1419.154,1702.126,1389.123z"/>
						</g>
					</g>
				</g>
			</g>
		</g>
		<g>
			<g>
				<g>
					<path style="fill:#FFD4E0;" d="M1765.433,1109.439l-201.828-28.427c0,0-125.076-159.188-142.132-170.559
						c-17.056-11.371-90.965-42.64-218.884-39.797c-127.919,2.843-150.661,278.58-150.661,278.58s201.473,231.718,210.356,233.097
						c121.365,18.837,165.026-86.442,165.026-86.442l-11.783-186.733l64.493,52.725h285.412V1109.439z"/>
				</g>
			</g>
		</g>
		<g>
			<g>
				<g>
					<g>
						<g>
							<g>
								<g>
									<path d="M1194.968,1309.767c0.827-0.058,1.475-0.75,1.468-1.589c-0.575-69.042-3.599-363.249-3.592-364.277
										c0.007-0.872-0.695-1.585-1.566-1.592c-0.89-0.004-1.585,0.694-1.592,1.567c-0.008,1.028,3.016,295.26,3.591,364.329
										c0.008,0.872,0.72,1.573,1.592,1.566C1194.904,1309.771,1194.937,1309.77,1194.968,1309.767z"/>
								</g>
							</g>
						</g>
					</g>
				</g>
			</g>
		</g>
		<g>
			<g>
				<g>
					<g>
						<g>
							<path style="fill:#F99247;" d="M1337.482,952.864l36.7,485.158c1.752,23.16-4.137,41.927-13.156,41.927h-270.584
								c-9.02,0-17.748-18.768-19.5-41.927l-36.701-485.158c-1.752-23.16,4.137-41.927,13.157-41.927h270.584
								C1327.001,910.936,1335.73,929.704,1337.482,952.864z"/>
						</g>
					</g>
				</g>
			</g>
		</g>
		<g>
			<g>
				<g>
					<g>
						<g>
							<path style="fill:#FEC786;" d="M1321.931,952.864l36.701,485.158c1.752,23.16-4.137,41.927-13.157,41.927H1074.89
								c-9.019,0-17.748-18.768-19.5-41.927l-36.7-485.158c-1.752-23.16,4.137-41.927,13.157-41.927h270.584
								C1311.45,910.936,1320.179,929.704,1321.931,952.864z"/>
						</g>
					</g>
				</g>
			</g>
		</g>
		<g>
			<g>
				<g>
					<g>
						<g>
							<path style="fill:#F99247;" d="M1531.346,1447.327H1104.38c-8.15,0-14.757,7.303-14.757,16.311
								c0,9.008,6.607,16.311,14.757,16.311h426.965c8.15,0,14.757-7.303,14.757-16.311
								C1546.103,1454.63,1539.495,1447.327,1531.346,1447.327z"/>
						</g>
					</g>
				</g>
			</g>
		</g>
		<g>
			<g>
				<g>
					<g>
						<g>
							<path style="fill:#FEC786;" d="M1358.211,1447.327h-252.848c-8.693,0-15.74,7.303-15.74,16.311
								c0,9.008,7.047,16.311,15.74,16.311h252.848c0.439,0,2.385,0.037,2.815,0c8.083-0.686,12.925-7.757,12.925-16.311
								C1373.951,1454.63,1366.903,1447.327,1358.211,1447.327z"/>
						</g>
					</g>
				</g>
			</g>
		</g>
		<g>
			<g>
				<g>
					<g>
						<g>
							<polygon style="fill:#F99247;" points="1358.41,1435.093 1361.026,1479.949 1390.355,1479.949 1372.4,1447.327 							"/>
						</g>
					</g>
				</g>
			</g>
		</g>
		<g>
			<g>
				<g>
					<g>
						<g>
							<g>
								<path style="fill:#1E2B46;" d="M1400.015,1860.058h-104.458v-380.109h-23.206v380.109h-101.746
									c-14.198,0-25.706,11.509-25.706,25.707h127.452h23.206h130.164C1425.721,1871.568,1414.212,1860.058,1400.015,1860.058z"/>
							</g>
						</g>
					</g>
				</g>
			</g>
		</g>
		<g>
			<g>
				<g>
					<g>
						<g>
							<path d="M1045.148,1320.782l-26.68-352.684c-3.858-25.605,0.781-43.08,3.891-51.209c2.62-6.846,8.709-7.785,11.685-7.322
								h263.608v2.739h-263.838l-0.117-0.02c-0.249-0.043-6.278-0.955-8.779,5.582c-3.013,7.877-7.505,24.838-3.729,49.924
								l26.691,352.784L1045.148,1320.782z"/>
						</g>
					</g>
				</g>
			</g>
		</g>
		<g>
			<g>
				<g>
					<g>
						<g>
							
								<rect x="1340.687" y="1036.219" transform="matrix(0.9972 -0.0754 0.0754 0.9972 -88.1201 104.706)" width="2.739" height="365.368"/>
						</g>
					</g>
				</g>
			</g>
		</g>
		<g>
			<g>
				<g>
					<g>
						<g>
							<rect x="1074.891" y="1478.579" width="456.455" height="2.739"/>
						</g>
					</g>
				</g>
			</g>
		</g>
		<g>
			<g>
				<g>
					<g>
						<g>
							
								<rect x="1130.612" y="1331.269" transform="matrix(0.8164 -0.5775 0.5775 0.8164 -573.8949 902.3046)" width="2.738" height="44.734"/>
						</g>
					</g>
				</g>
			</g>
		</g>
		<g>
			<g>
				<g>
					<g>
						<g>
							
								<rect x="1130.612" y="1363.165" transform="matrix(0.8164 -0.5775 0.5775 0.8164 -592.3223 908.188)" width="2.739" height="44.733"/>
						</g>
					</g>
				</g>
			</g>
		</g>
		<g>
			<g>
				<g>
					<g>
						<g>
							<polygon points="1400.015,1861.428 1294.188,1861.428 1294.188,1479.949 1296.927,1479.949 1296.927,1858.689 
								1400.015,1858.689 							"/>
						</g>
					</g>
				</g>
			</g>
		</g>
		<g>
			<g>
				<g>
					<path d="M1764.064,1143.471h2.739v-35.223l-202.465-28.516c-6.565-8.28-103.994-131.059-126.111-154.41
						c-0.433-0.487-11.381-12.739-20.768-18.868c-8.337-5.443-41.333-23.847-115.903-32.186l-0.305,2.723
						c73.969,8.27,106.502,26.397,114.711,31.755c9.078,5.929,20.137,18.304,20.247,18.428
						c22.722,23.991,125.288,153.384,126.322,154.688l0.34,0.429l201.192,28.337V1143.471z"/>
				</g>
			</g>
		</g>
		<g>
			<g>
				<g>
					<path d="M1395.222,1343.378c16-13.76,32.606-45.511,33.304-46.857l0.176-0.337l-11.807-187.112l-2.734,0.172l11.758,186.348
						c-1.843,3.48-17.742,33.031-32.484,45.711L1395.222,1343.378z"/>
				</g>
			</g>
		</g>
		<g>
			<g>
				<g>
					
						<rect x="1440.676" y="1081.786" transform="matrix(0.6328 -0.7743 0.7743 0.6328 -346.091 1531.905)" width="2.739" height="98.102"/>
				</g>
			</g>
		</g>
	</g>
	<g>
		<g>
			<g>
				<g>
					<g>
						<g>
							<g>
								<path style="fill:#3F567E;" d="M479.493,726.232l-3.246,0.761l-0.379-1.623c-1.397-5.955-2.655-12.05-3.74-18.116
									l-0.294-1.641l3.282-0.587l0.294,1.641c1.074,6.009,2.321,12.046,3.703,17.945L479.493,726.232z M472.872,690.212
									l-3.308,0.41l-0.203-1.655c-0.764-6.164-1.352-12.359-1.749-18.414l-0.109-1.663l3.327-0.218l0.109,1.663
									c0.393,5.991,0.976,12.122,1.73,18.223L472.872,690.212z M676.576,593.388c-0.003,0.001-0.006,0.002-0.009,0.004
									c-2.555,0.961-5.283,1.706-8.106,2.214l-1.64,0.295l-0.591-3.28l1.64-0.295c2.625-0.473,5.157-1.164,7.523-2.054
									c0.003-0.001,0.006-0.002,0.009-0.003c3.109-1.17,6.02-2.716,8.649-4.595l1.355-0.969l1.939,2.712l-1.355,0.969
									C683.125,590.433,679.956,592.117,676.576,593.388z M651.115,596.024l-1.622-0.386c-6.075-1.449-11.412-5.047-15.859-10.695
									l-1.032-1.309l2.619-2.063l1.032,1.309c3.972,5.044,8.688,8.245,14.014,9.516l1.622,0.387L651.115,596.024z
									 M697.664,575.565l-2.926-1.598l0.799-1.463c2.694-4.933,4.579-10.597,5.6-16.833l0.27-1.645l3.29,0.54l-0.269,1.644
									c-1.083,6.607-3.09,12.627-5.967,17.893L697.664,575.565z M470.309,653.72l-3.332,0.008l-0.004-1.667
									c-0.017-6.268,0.182-12.494,0.587-18.503l0.112-1.663l3.326,0.225l-0.112,1.663c-0.401,5.932-0.597,12.078-0.581,18.27
									L470.309,653.72z M628.839,568.661l-3.186,0.981l-0.491-1.593c-1.724-5.596-2.855-11.793-3.36-18.419l-0.126-1.662
									l3.324-0.254l0.126,1.662c0.487,6.38,1.571,12.332,3.222,17.692L628.839,568.661z M705.184,539.12l-3.321,0.292
									l-0.145-1.661c-0.518-5.895-1.695-11.838-3.498-17.662l-0.492-1.592l3.184-0.985l0.493,1.592
									c1.872,6.05,3.096,12.226,3.634,18.357L705.184,539.12z M472.565,617.273l-3.299-0.482l0.242-1.65
									c0.906-6.203,2.07-12.329,3.459-18.206l0.383-1.622l3.245,0.766l-0.383,1.622c-1.367,5.784-2.512,11.814-3.406,17.923
									L472.565,617.273z M625.135,532.937l-3.321-0.29l0.146-1.661c0.524-6.013,1.499-12.196,2.896-18.376l0.367-1.626
									l3.251,0.736l-0.367,1.626c-1.363,6.034-2.315,12.066-2.827,17.931L625.135,532.937z M691.962,504.976l-0.813-1.456
									c-1.155-2.07-2.398-4.095-3.695-6.017c-2.052-3.041-4.345-5.896-6.816-8.486l-1.151-1.205l2.411-2.302l1.151,1.205
									c2.6,2.725,5.013,5.727,7.169,8.923c1.349,2,2.643,4.104,3.844,6.257l0.812,1.455L691.962,504.976z M480.702,581.766
									l-3.155-1.077l0.537-1.577c2.017-5.91,4.338-11.705,6.901-17.222l0.701-1.512l3.023,1.404l-0.702,1.512
									c-2.512,5.412-4.789,11.096-6.767,16.894L480.702,581.766z M632.638,497.463l-3.14-1.121l0.561-1.57
									c2.052-5.747,4.482-11.502,7.22-17.105l0.732-1.497l2.996,1.464l-0.732,1.498c-2.685,5.492-5.065,11.131-7.077,16.763
									L632.638,497.463z M495.719,548.68l-2.845-1.737l0.868-1.422c3.228-5.283,6.793-10.412,10.594-15.245l1.03-1.31l2.619,2.062
									l-1.031,1.31c-3.72,4.729-7.208,9.749-10.368,14.922L495.719,548.68z M668.047,478.838l-1.444-0.833
									c-5.043-2.907-10.615-5.195-16.559-6.799l-1.609-0.435l0.868-3.218l1.61,0.434c6.222,1.68,12.061,4.079,17.355,7.129
									l1.444,0.832L668.047,478.838z M517.845,519.916l-2.367-2.348l1.172-1.183c4.339-4.373,8.945-8.584,13.691-12.514
									l1.283-1.064l2.127,2.568l-1.284,1.063c-4.664,3.862-9.188,7.999-13.45,12.295L517.845,519.916z M648.239,464.633
									l-2.824-1.77l0.884-1.412c3.243-5.175,6.818-10.289,10.625-15.2l1.022-1.319l2.635,2.043l-1.021,1.317
									c-3.74,4.824-7.25,9.847-10.435,14.928L648.239,464.633z M633.919,468.544l-1.665-0.084
									c-5.798-0.296-11.879-0.067-18.069,0.681l-1.655,0.199l-0.399-3.309l1.655-0.201c6.38-0.77,12.65-1.005,18.639-0.701
									l1.665,0.085L633.919,468.544z M545.676,496.447l-1.864-2.763l1.381-0.932c5.153-3.476,10.5-6.701,15.89-9.586l1.469-0.787
									l1.573,2.939l-1.471,0.787c-5.29,2.831-10.537,5.997-15.598,9.41L545.676,496.447z M597.992,472.185l-1.611,0.43
									c-5.71,1.525-11.508,3.466-17.239,5.773l-1.545,0.622l-1.245-3.092l1.547-0.622c5.839-2.355,11.781-4.341,17.622-5.901
									l1.61-0.43L597.992,472.185z M670.27,435.699l-2.392-2.322l1.162-1.196c4.23-4.354,8.863-8.553,13.772-12.482l1.3-1.041
									l2.083,2.603l-1.302,1.042c-4.8,3.842-9.33,7.948-13.464,12.203L670.27,435.699z M822.724,374.75l-1.661,0.147
									c-6.053,0.535-12.172,1.234-18.191,2.075l-1.65,0.231l-0.463-3.302l1.651-0.23c6.075-0.85,12.251-1.555,18.361-2.095
									l1.659-0.147L822.724,374.75z M786.45,379.661l-1.637,0.318c-6.057,1.174-12.064,2.515-17.857,3.985l-1.615,0.41l-0.82-3.23
									l1.616-0.41c5.852-1.486,11.923-2.84,18.043-4.027l1.636-0.317L786.45,379.661z M698.315,412.643l-1.783-2.816l1.409-0.892
									c5.082-3.217,10.513-6.292,16.14-9.137l1.488-0.752l1.505,2.974l-1.487,0.753c-5.534,2.798-10.87,5.819-15.862,8.979
									L698.315,412.643z M750.969,388.502l-1.586,0.513c-5.876,1.898-11.565,3.957-17.176,6.226l-1.544,0.625l-1.251-3.089
									l1.546-0.626c5.677-2.301,11.447-4.387,17.402-6.309l1.585-0.512L750.969,388.502z"/>
							</g>
						</g>
					</g>
				</g>
			</g>
		</g>
		<g>
			<g>
				<g>
					<g>
						<g>
							<path style="fill:#F99247;" d="M864.062,390.389l11.94-22.423c0,0,78.695-27.527,79.692-28.359
								c0.997-0.832,37.652-31.307,37.652-31.307l-52.857,9.099l-82.401,32.089L864.062,390.389z"/>
						</g>
					</g>
				</g>
			</g>
			<g>
				<g>
					<g>
						<g>
							<polygon style="fill:#FEC786;" points="829.071,312.254 993.347,308.3 858.089,349.488 							"/>
						</g>
					</g>
				</g>
			</g>
			<g>
				<g>
					<g>
						<g>
							<polygon style="fill:#FEC786;" points="876.003,367.967 906.595,407.685 993.347,308.3 							"/>
						</g>
					</g>
				</g>
			</g>
		</g>
	</g>
	<g>
		<g>
			<g>
				<g>
					<g>
						<g>
							<path style="fill:#258D8C;" d="M2605.776,1525.151c0,0-7.247-101.031-46.466-81.422
								c-39.219,19.609-71.191,148.35-75.454,152.186c-4.263,3.837-2.984,121.493-2.984,121.493l45.613-23.014
								C2526.486,1694.394,2538.622,1413.167,2605.776,1525.151z"/>
						</g>
					</g>
				</g>
			</g>
			<g>
				<g>
					<g>
						<g>
							<path style="fill:#7FC6A6;" d="M2561.824,1315.971c0,0-87.879,78.628-111.858,213.443
								c-23.979,134.815,51.795,174.492,51.795,174.492S2512.543,1420.436,2561.824,1315.971z"/>
						</g>
					</g>
				</g>
			</g>
			<g>
				<g>
					<g>
						<g>
							<path style="fill:#258D8C;" d="M2398.811,1722.097c0,0-14.707-286.992-88.882-411.421c0,0,130.222,77.691,173.401,281.608
								c2.431,11.48,3.873,24.241,5.714,36.53c1.915,12.786,3.057,24.107,2.765,35.409c-0.516,19.968-3.286,37.127-4.1,49.736
								C2480.675,1822.919,2398.811,1722.097,2398.811,1722.097z"/>
						</g>
					</g>
				</g>
			</g>
			<g>
				<g>
					<g>
						<g>
							<path style="fill:#7FC6A6;" d="M2401.324,1600.23c-5.047-40.917-20.583-79.919-45.551-112.725
								c-18.036-23.699-38.917-41.708-55.223-28.856c-36.235,28.562-43.482,205.899-43.482,205.899s40.924-122.772,58.828-114.673
								c17.904,8.1,34.53,174.78,34.53,174.78l66.928,5.542L2401.324,1600.23z"/>
						</g>
					</g>
				</g>
			</g>
			<g>
				<g>
					<g>
						<g>
							<path d="M2492.612,1712.078c2.748-62.656-5.111-122.794-23.356-178.74c-14.598-44.762-35.84-86.955-63.135-125.407
								c-46.483-65.482-95.111-97.84-95.596-98.159l-1.189,1.811c0.483,0.317,48.826,32.5,95.075,97.681
								c42.669,60.136,92.232,161.469,86.038,302.721L2492.612,1712.078z"/>
						</g>
					</g>
				</g>
			</g>
			<g>
				<g>
					<g>
						<g>
							<path style="fill:#21111D;" d="M2502.844,1703.947c0.027-0.708,2.796-71.802,11.547-154.733
								c8.071-76.485,23.022-178.957,48.413-232.781l-1.959-0.924c-25.521,54.1-40.521,156.833-48.61,233.49
								c-8.758,83.002-11.529,154.157-11.556,154.866L2502.844,1703.947z"/>
						</g>
					</g>
				</g>
			</g>
			<g>
				<g>
					<g>
						<g>
							<path style="fill:#21111D;" d="M2527.568,1694.441c0.02-0.462,2.08-46.683,8.872-93.52
								c8.93-61.584,21.837-96.234,37.326-100.205c9.146-2.343,19.602,6.066,31.085,24.997l1.852-1.124
								c-12.036-19.842-23.298-28.58-33.475-25.97c-16.639,4.265-29.738,38.586-38.934,102.007
								c-6.806,46.942-8.87,93.26-8.889,93.722L2527.568,1694.441z"/>
						</g>
					</g>
				</g>
			</g>
			<g>
				<g>
					<g>
						<g>
							<path style="fill:#21111D;" d="M2416.28,1730.329l2.15-0.265l-16.03-129.967c-5.115-41.472-20.94-80.632-45.764-113.249
								c-15.718-20.652-29.678-31.884-41.495-33.385c-5.58-0.71-10.713,0.75-15.261,4.335
								c-15.256,12.026-27.278,50.505-35.732,114.368c-6.275,47.405-8.144,91.893-8.162,92.337l2.164,0.089
								c0.073-1.768,7.639-177.164,43.07-205.093c4.075-3.212,8.667-4.517,13.647-3.887c11.219,1.425,24.691,12.376,40.044,32.548
								c24.592,32.312,40.269,71.11,45.337,112.202L2416.28,1730.329z"/>
						</g>
					</g>
				</g>
			</g>
			<g>
				<g>
					<g>
						<g>
							
								<rect x="2351.689" y="1568.842" transform="matrix(0.8888 -0.4584 0.4584 0.8888 -464.4274 1254.7178)" style="fill:#21111D;" width="2.166" height="30.671"/>
						</g>
					</g>
				</g>
			</g>
			<g>
				<g>
					<g>
						<g>
							
								<rect x="2351.689" y="1587.146" transform="matrix(0.8759 -0.4825 0.4825 0.8759 -480.8361 1333.9406)" style="fill:#21111D;" width="2.166" height="29.145"/>
						</g>
					</g>
				</g>
			</g>
			<g>
				<g>
					<g>
						<g>
							
								<rect x="2483.04" y="1420.072" transform="matrix(0.4145 -0.91 0.91 0.4145 168.9828 3104.9624)" style="fill:#21111D;" width="29" height="2.166"/>
						</g>
					</g>
				</g>
			</g>
			<g>
				<g>
					<g>
						<g>
							
								<rect x="2486.091" y="1436.825" transform="matrix(0.4847 -0.8747 0.8747 0.4847 28.8345 2924.7588)" style="fill:#21111D;" width="21.109" height="2.166"/>
						</g>
					</g>
				</g>
			</g>
			<g>
				<g>
					<g>
						<g>
							
								<rect x="2548.467" y="1458.503" transform="matrix(0.891 -0.4541 0.4541 0.891 -383.6356 1321.5968)" style="fill:#21111D;" width="22.967" height="2.167"/>
						</g>
					</g>
				</g>
			</g>
			<g>
				<g>
					<g>
						<g>
							
								<rect x="2548.687" y="1468.921" transform="matrix(0.8543 -0.5197 0.5197 0.8543 -391.7078 1542.4364)" style="fill:#21111D;" width="14.17" height="2.166"/>
						</g>
					</g>
				</g>
			</g>
		</g>
		<g>
			<g>
				<g>
					<g>
						<path style="fill:#FEC786;" d="M2549.719,1687.097c0,0-3.819,209.812-60.016,204.89h-44.191h-7.096h-44.191
							c-56.197,4.922-60.016-204.89-60.016-204.89C2387.388,1679.06,2496.539,1679.06,2549.719,1687.097z"/>
					</g>
				</g>
			</g>
		</g>
		<g>
			<g>
				<g>
					<g>
						
							<rect x="2385.565" y="1702.47" transform="matrix(0.7262 -0.6875 0.6875 0.7262 -547.6353 2119.2932)" style="fill:#21111D;" width="2.166" height="89.307"/>
					</g>
				</g>
			</g>
		</g>
		<g>
			<g>
				<g>
					<g>
						
							<rect x="2389.791" y="1750.121" transform="matrix(0.7546 -0.6562 0.6562 0.7546 -578.579 2004.7444)" style="fill:#21111D;" width="2.166" height="51.519"/>
					</g>
				</g>
			</g>
		</g>
	</g>
	<rect x="283.165" y="1881.683" style="fill:#1E2B46;" width="2727.973" height="10.39"/>
</g>
</svg>
